<svg width="180" height="180" viewBox="0 0 180 180" fill="none" xmlns="http://www.w3.org/2000/svg">
<path fill-rule="evenodd" clip-rule="evenodd" d="M37.5806 131.863C35.3542 129.813 34.8594 129.044 33.6225 126.481C36.3437 120.842 42.0334 118.536 50.6917 117.254L50.4443 109.565C41.786 110.591 34.1173 114.691 33.3751 121.611C30.4066 150.572 59.1025 157.749 88.5406 146.728C126.637 132.376 141.727 117.511 167.207 115.973L167.702 102.389C127.132 105.465 66.7713 158.774 37.5806 131.863Z" fill="white"/>
<path fill-rule="evenodd" clip-rule="evenodd" d="M51.6121 80.9746C46.204 85.2564 45.4665 83.4933 45.2207 95.3315C43.0083 94.8277 43.0083 94.5758 41.5334 92.8127L38.3377 89.0346C42.5167 124.549 92.1729 147.973 124.13 119.763C131.259 113.467 140.354 102.636 141.829 89.0346C139.862 91.0496 137.896 94.5758 135.192 95.0796C135.192 87.0196 135.192 83.4933 129.046 81.4783C129.046 81.2264 129.292 80.9745 129.538 80.7227C131.259 79.7152 132.242 77.7002 132.242 75.6852C132.242 72.4108 129.538 69.6401 126.342 69.6401C123.147 69.6401 120.442 72.4108 120.442 75.6852C120.442 77.7002 121.426 79.4633 122.901 80.4708L123.147 80.7227L120.442 82.9896C116.509 86.5158 117.247 89.5383 117.001 95.3315C114.051 94.0721 113.805 92.8127 111.839 91.3015L107.168 93.0646C108.151 102.132 105.939 111.452 99.3017 113.467C99.0559 104.651 99.5475 102.384 92.9103 99.1096C94.6311 98.1021 95.8602 96.0871 95.8602 93.8202C95.8602 90.5458 93.1561 87.7752 89.9605 87.7752C86.7648 87.7752 84.0607 90.5458 84.0607 93.8202C84.0607 96.0871 85.2898 98.1021 87.0106 99.1096C80.1275 102.636 80.6192 105.406 80.865 113.718C77.6693 113.215 75.2111 109.94 73.7361 106.918C71.2779 102.384 71.5238 98.8577 72.0154 93.5683L68.5739 91.5533C66.6073 92.8127 66.1156 93.8202 63.4116 95.3315C63.1658 85.7602 63.6574 86.0121 58.0035 81.4783C58.0035 81.4783 57.7577 81.2264 57.5118 81.2264L57.266 80.9746C58.9868 79.967 59.9701 77.952 59.9701 75.6852C59.9701 72.4108 57.266 69.6401 54.0703 69.6401C50.8746 69.6401 48.1706 72.4108 48.1706 75.6852C48.6622 77.952 49.8913 79.7152 51.6121 80.9746ZM90.2063 52.2607C93.402 52.2607 96.106 55.0313 96.106 58.3057C96.106 60.5726 94.8769 62.5876 93.1561 63.5951C99.7934 67.3733 98.8101 67.877 99.7934 76.6927C103.972 74.9295 104.71 70.8995 107.414 68.3808L110.364 69.3883C108.397 79.7152 106.922 75.6852 109.626 87.5233L105.939 89.5383C102.006 85.2564 98.0726 79.967 88.9772 80.4708C78.8984 80.9745 75.2111 88.7827 73.4903 89.7902L70.7863 88.5308C71.2779 85.2564 72.7529 82.4858 72.507 78.4558C72.2612 74.9295 70.0488 72.1589 70.2946 69.3883L72.9987 68.1289L76.686 73.4183C77.9151 75.1814 79.1443 75.937 81.3567 76.9445C81.6025 69.3883 82.0941 66.3658 87.9939 64.0989C86.0273 63.0914 84.7982 61.0764 84.7982 58.8095C84.3065 55.0313 86.7648 52.2607 90.2063 52.2607Z" fill="white"/>
<path fill-rule="evenodd" clip-rule="evenodd" d="M90.9458 21.48C112.978 21.48 133.029 30.5599 147.634 45.4408C162.24 60.3218 171.152 80.7516 171.152 103.451C171.152 107.487 170.904 111.522 170.409 115.306L166.448 115.81C167.191 111.775 167.438 107.487 167.438 103.199C167.438 81.5082 159.022 62.0873 145.159 47.963C131.049 34.091 111.987 25.5155 90.9458 25.5155C69.9042 25.5155 50.8429 34.091 36.9802 48.4675C23.1175 62.5918 14.7008 82.2649 14.7008 103.704C14.7008 123.377 21.8797 141.536 33.5145 155.156H28.5635C17.4238 141.032 10.74 123.124 10.74 103.704C10.74 81.0038 19.6518 60.574 34.2572 45.6931C48.615 30.5599 68.6664 21.48 90.9458 21.48Z" fill="white"/>
</svg>
