<svg width="50" height="50" viewBox="0 0 50 50" fill="none" xmlns="http://www.w3.org/2000/svg">
<path fill-rule="evenodd" clip-rule="evenodd" d="M10.4974 36.8332C9.87545 36.2605 9.73725 36.0457 9.39175 35.3298C10.1519 33.7548 11.7412 33.1105 14.1597 32.7526L14.0906 30.6048C11.6721 30.8912 9.52995 32.0366 9.32265 33.9696C8.49345 42.0593 16.5091 44.0638 24.732 40.9854C35.3734 36.9764 39.5886 32.8241 46.7059 32.3946L46.8441 28.6003C35.5117 29.4594 18.6512 44.3502 10.4974 36.8332Z" fill="#960241"/>
<path fill-rule="evenodd" clip-rule="evenodd" d="M14.4168 22.6186C12.9062 23.8147 12.7002 23.3222 12.6315 26.6289C12.0135 26.4882 12.0135 26.4178 11.6015 25.9253L10.7089 24.87C11.8762 34.7903 25.7466 41.3334 34.6731 33.4535C36.6644 31.6946 39.2051 28.6692 39.6171 24.87C39.0677 25.4329 38.5184 26.4178 37.7631 26.5586C37.7631 24.3072 37.7631 23.3222 36.0465 22.7593C36.0465 22.689 36.1151 22.6186 36.1838 22.5482C36.6644 22.2668 36.9391 21.704 36.9391 21.1411C36.9391 20.2265 36.1838 19.4526 35.2911 19.4526C34.3985 19.4526 33.6432 20.2265 33.6432 21.1411C33.6432 21.704 33.9178 22.1965 34.3298 22.4779L34.3985 22.5482L33.6432 23.1815C32.5445 24.1664 32.7505 25.0107 32.6818 26.6289C31.8579 26.2771 31.7892 25.9254 31.2399 25.5032L29.9352 25.9957C30.2099 28.5285 29.5919 31.1317 27.7379 31.6946C27.6693 29.2321 27.8066 28.5989 25.9526 27.6843C26.4333 27.4028 26.7766 26.84 26.7766 26.2068C26.7766 25.2921 26.0213 24.5182 25.1286 24.5182C24.236 24.5182 23.4807 25.2921 23.4807 26.2068C23.4807 26.84 23.824 27.4028 24.3046 27.6843C22.382 28.6692 22.5193 29.4432 22.588 31.7649C21.6954 31.6242 21.0087 30.7096 20.5967 29.8653C19.91 28.5989 19.9787 27.6139 20.116 26.1364L19.1547 25.5736C18.6054 25.9254 18.4681 26.2068 17.7128 26.6289C17.6441 23.9554 17.7814 24.0257 16.2021 22.7593C16.2021 22.7593 16.1334 22.689 16.0648 22.689L15.9961 22.6186C16.4768 22.3372 16.7514 21.7743 16.7514 21.1411C16.7514 20.2265 15.9961 19.4526 15.1035 19.4526C14.2108 19.4526 13.4555 20.2265 13.4555 21.1411C13.5928 21.7743 13.9361 22.2668 14.4168 22.6186ZM25.1973 14.598C26.0899 14.598 26.8453 15.3719 26.8453 16.2865C26.8453 16.9197 26.5019 17.4826 26.0213 17.764C27.8753 18.8194 27.6006 18.9601 27.8753 21.4225C29.0426 20.93 29.2486 19.8043 30.0039 19.1008L30.8279 19.3822C30.2785 22.2668 29.8666 21.1411 30.6219 24.4479L29.5919 25.0107C28.4932 23.8147 27.3946 22.3372 24.854 22.4779C22.0387 22.6186 21.0087 24.7996 20.528 25.0811L19.7727 24.7293C19.91 23.8147 20.322 23.0407 20.2534 21.915C20.1847 20.93 19.5667 20.1561 19.6354 19.3822L20.3907 19.0304L21.4207 20.5079C21.764 21.0004 22.1073 21.2115 22.7253 21.4929C22.794 19.3822 22.9313 18.5379 24.5793 17.9047C24.03 17.6233 23.6867 17.0604 23.6867 16.4272C23.5493 15.3719 24.236 14.598 25.1973 14.598Z" fill="#960241"/>
<path fill-rule="evenodd" clip-rule="evenodd" d="M25.4039 6C31.558 6 37.159 8.53629 41.2387 12.693C45.3184 16.8497 47.8077 22.5563 47.8077 28.897C47.8077 30.0243 47.7386 31.1515 47.6003 32.2083L46.4939 32.3492C46.7013 31.222 46.7705 30.0243 46.7705 28.8266C46.7705 22.7677 44.4195 17.3428 40.5472 13.3975C36.6058 9.52262 31.2814 7.12724 25.4039 7.12724C19.5263 7.12724 14.2019 9.52262 10.3297 13.5384C6.45739 17.4837 4.10636 22.979 4.10636 28.9675C4.10636 34.4628 6.11165 39.5353 9.36159 43.3398H7.97863C4.86699 39.3944 3 34.3923 3 28.9675C3 22.6268 5.48932 16.9201 9.56903 12.7634C13.5796 8.53629 19.1806 6 25.4039 6Z" fill="#960241"/>
</svg>
