<svg width="65" height="39" viewBox="0 0 65 39" fill="none" xmlns="http://www.w3.org/2000/svg">
<g clip-path="url(#clip0)">
<path fill-rule="evenodd" clip-rule="evenodd" d="M19.3303 36.6191C23.7506 36.6191 27.9898 34.8631 31.1154 31.7375C34.2411 28.6119 35.997 24.3727 35.997 19.9524C35.997 15.5321 34.2411 11.2929 31.1154 8.1673C27.9898 5.04169 23.7506 3.28574 19.3303 3.28574C14.9101 3.28574 10.6708 5.04169 7.54522 8.1673C4.41961 11.2929 2.66367 15.5321 2.66367 19.9524C2.66367 24.3727 4.41961 28.6119 7.54522 31.7375C10.6708 34.8631 14.9101 36.6191 19.3303 36.6191ZM19.3303 0.904793C24.3821 0.904793 29.2269 2.91159 32.799 6.48371C36.3712 10.0558 38.378 14.9007 38.378 19.9524C38.378 25.0042 36.3712 29.849 32.799 33.4211C29.2269 36.9932 24.3821 39 19.3303 39C14.2786 39 9.43375 36.9932 5.86163 33.4211C2.28951 29.849 0.282715 25.0042 0.282715 19.9524C0.282715 14.9007 2.28951 10.0558 5.86163 6.48371C9.43375 2.91159 14.2786 0.904793 19.3303 0.904793ZM27.6637 18.7619C27.9794 18.7619 28.2822 18.8874 28.5055 19.1106C28.7287 19.3339 28.8541 19.6367 28.8541 19.9524C28.8541 20.2681 28.7287 20.5709 28.5055 20.7942C28.2822 21.0175 27.9794 21.1429 27.6637 21.1429H13.8708L18.9827 26.2524C19.2063 26.476 19.3318 26.7791 19.3318 27.0953C19.3318 27.4114 19.2063 27.7146 18.9827 27.9381C18.7592 28.1617 18.456 28.2872 18.1399 28.2872C17.8237 28.2872 17.5205 28.1617 17.297 27.9381L10.1541 20.7953C10.0433 20.6847 9.95532 20.5533 9.8953 20.4087C9.83529 20.2641 9.8044 20.109 9.8044 19.9524C9.8044 19.7958 9.83529 19.6408 9.8953 19.4961C9.95532 19.3515 10.0433 19.2201 10.1541 19.1096L17.297 11.9667C17.5205 11.7432 17.8237 11.6176 18.1399 11.6176C18.456 11.6176 18.7592 11.7432 18.9827 11.9667C19.2063 12.1902 19.3318 12.4934 19.3318 12.8096C19.3318 13.1257 19.2063 13.4289 18.9827 13.6524L13.8708 18.7619H27.6637Z" fill="black"/>
</g>
<line x1="52.4494" y1="20.7619" x2="35.616" y2="20.7619" stroke="#DD6031" stroke-width="4" stroke-linecap="round"/>
<line x1="62.5684" y1="20.7619" x2="59.4256" y2="20.7619" stroke="#DD6031" stroke-width="4" stroke-linecap="round"/>
<defs>
<clipPath id="clip0">
<rect width="38.0952" height="38.0952" fill="white" transform="translate(0.282715 39) rotate(-90)"/>
</clipPath>
</defs>
</svg>
