<svg width="66" height="39" viewBox="0 0 66 39" fill="none" xmlns="http://www.w3.org/2000/svg">
<g clip-path="url(#clip0)">
<path fill-rule="evenodd" clip-rule="evenodd" d="M46.0448 35.7143C41.6245 35.7143 37.3853 33.9583 34.2597 30.8327C31.1341 27.7071 29.3781 23.4679 29.3781 19.0476C29.3781 14.6274 31.1341 10.3881 34.2597 7.26251C37.3853 4.13691 41.6245 2.38096 46.0448 2.38096C50.4651 2.38096 54.7043 4.13691 57.8299 7.26251C60.9555 10.3881 62.7115 14.6274 62.7115 19.0476C62.7115 23.4679 60.9555 27.7071 57.8299 30.8327C54.7043 33.9583 50.4651 35.7143 46.0448 35.7143ZM46.0448 7.62939e-06C40.9931 7.62939e-06 36.1482 2.00681 32.5761 5.57893C29.004 9.15105 26.9972 13.9959 26.9972 19.0476C26.9972 24.0994 29.004 28.9442 32.5761 32.5163C36.1482 36.0884 40.9931 38.0952 46.0448 38.0952C51.0965 38.0952 55.9414 36.0884 59.5135 32.5163C63.0856 28.9442 65.0924 24.0994 65.0924 19.0476C65.0924 13.9959 63.0856 9.15105 59.5135 5.57893C55.9414 2.00681 51.0965 7.62939e-06 46.0448 7.62939e-06ZM37.7115 17.8572C37.3957 17.8572 37.0929 17.9826 36.8697 18.2058C36.6464 18.4291 36.521 18.7319 36.521 19.0476C36.521 19.3634 36.6464 19.6662 36.8697 19.8894C37.0929 20.1127 37.3957 20.2381 37.7115 20.2381H51.5043L46.3924 25.3476C46.1689 25.5712 46.0433 25.8744 46.0433 26.1905C46.0433 26.5066 46.1689 26.8098 46.3924 27.0333C46.616 27.2569 46.9191 27.3825 47.2353 27.3825C47.5514 27.3825 47.8546 27.2569 48.0781 27.0333L55.221 19.8905C55.3319 19.7799 55.4198 19.6485 55.4798 19.5039C55.5398 19.3593 55.5707 19.2042 55.5707 19.0476C55.5707 18.891 55.5398 18.736 55.4798 18.5914C55.4198 18.4467 55.3319 18.3154 55.221 18.2048L48.0781 11.0619C47.8546 10.8384 47.5514 10.7128 47.2353 10.7128C46.9191 10.7128 46.616 10.8384 46.3924 11.0619C46.1689 11.2855 46.0433 11.5886 46.0433 11.9048C46.0433 12.2209 46.1689 12.5241 46.3924 12.7476L51.5043 17.8572H37.7115Z" fill="#F8FAFF"/>
</g>
<line x1="2" y1="-2" x2="18.8333" y2="-2" transform="matrix(1 0 0 -1 10.9258 17.8571)" stroke="#DD6031" stroke-width="4" stroke-linecap="round"/>
<line x1="2" y1="-2" x2="5.14286" y2="-2" transform="matrix(1 0 0 -1 0.806709 17.8571)" stroke="#DD6031" stroke-width="4" stroke-linecap="round"/>
<defs>
<clipPath id="clip0">
<rect width="38.0952" height="38.0952" fill="white" transform="matrix(0 -1 -1 0 65.0924 38.0952)"/>
</clipPath>
</defs>
</svg>
