<svg width="634" height="154" viewBox="0 0 634 154" fill="none" xmlns="http://www.w3.org/2000/svg">
<path d="M159.055 48.0072C160.544 44.4593 163.001 42.6854 166.426 42.6854C168.66 42.6854 170.671 43.4245 172.458 44.9028C174.245 46.3811 175.139 48.2289 175.139 50.4464C175.139 51.4812 174.915 52.5899 174.469 53.7725L137.386 146.904C136.492 148.826 135.152 150.378 133.365 151.561C131.726 152.596 129.865 153.113 127.78 153.113C125.844 153.113 123.982 152.596 122.195 151.561C120.557 150.378 119.291 148.826 118.397 146.904L87.5694 69.0727L56.9648 146.904C56.2201 148.826 54.9542 150.378 53.1671 151.561C51.38 152.596 49.4439 153.113 47.3589 153.113C45.4229 153.113 43.5613 152.596 41.7742 151.561C39.987 150.378 38.6467 148.826 37.7531 146.904L0.670174 53.9942C0.223391 52.8116 0 51.7768 0 50.8898C0 48.5246 0.968029 46.5289 2.90409 44.9028C4.98907 43.2767 7.22298 42.4636 9.60582 42.4636C13.1801 42.4636 15.7118 44.2376 17.2011 47.7854L47.8057 129.608L79.3039 48.4507C80.1974 46.5289 81.3889 45.0506 82.8781 44.0158C84.5163 42.981 86.229 42.4636 88.0162 42.4636C89.9522 42.4636 91.6649 42.981 93.1541 44.0158C94.7924 45.0506 95.9838 46.5289 96.7284 48.4507L128.227 129.387L159.055 48.0072Z" fill="#F7F7F4"/>
<path d="M281.236 127.391C282.874 127.391 284.289 128.056 285.48 129.387C286.671 130.717 287.267 132.417 287.267 134.487C287.267 138.182 284.661 141.582 279.448 144.687C274.087 147.791 268.428 150.156 262.471 151.783C256.514 153.261 250.705 154 245.046 154C228.217 154 214.888 149.048 205.059 139.143C195.379 129.239 190.539 115.565 190.539 98.121C190.539 87.0338 192.698 77.2772 197.017 68.851C201.336 60.2769 207.368 53.6247 215.112 48.8942C223.005 44.1637 231.941 41.7984 241.919 41.7984C256.067 41.7984 267.311 46.3811 275.651 55.5464C283.991 64.7118 288.161 77.1293 288.161 92.7991C288.161 95.7557 287.565 97.8992 286.374 99.2296C285.182 100.56 283.246 101.225 280.565 101.225H208.633C209.974 126.652 222.111 139.365 245.046 139.365C250.854 139.365 255.843 138.626 260.013 137.148C264.183 135.521 268.651 133.378 273.417 130.717C277.289 128.5 279.895 127.391 281.236 127.391ZM242.142 55.7682C232.611 55.7682 224.941 58.7247 219.133 64.6379C213.474 70.551 210.123 78.9033 209.08 89.6947H272.3C272.002 78.7554 269.247 70.4032 264.034 64.6379C258.822 58.7247 251.525 55.7682 242.142 55.7682Z" fill="#F7F7F4"/>
<path d="M359.723 154C349.596 154 340.586 151.709 332.692 147.126C324.948 142.543 318.917 136.039 314.598 127.613C310.428 119.186 308.343 109.43 308.343 98.3427C308.343 87.2556 310.502 77.425 314.821 68.851C319.289 60.2769 325.469 53.6247 333.363 48.8942C341.256 44.1637 350.34 41.7984 360.616 41.7984C366.276 41.7984 371.86 42.6115 377.371 44.2376C383.03 45.7159 387.944 47.9333 392.114 50.8898C394.795 52.6638 396.657 54.4377 397.699 56.2117C398.891 57.8378 399.486 59.6856 399.486 61.7552C399.486 63.8248 398.891 65.5248 397.699 66.8553C396.657 68.1857 395.242 68.851 393.455 68.851C392.412 68.851 391.295 68.5553 390.104 67.964C388.912 67.3727 387.87 66.7814 386.976 66.1901C386.232 65.5987 385.711 65.2292 385.413 65.0813C381.541 62.5683 377.817 60.5726 374.243 59.0943C370.818 57.616 366.573 56.8769 361.51 56.8769C350.638 56.8769 342.149 60.5726 336.043 67.964C330.086 75.2076 327.108 85.3338 327.108 98.3427C327.108 111.352 330.086 121.404 336.043 128.5C342.149 135.595 350.638 139.143 361.51 139.143C366.573 139.143 370.892 138.404 374.466 136.926C378.19 135.448 381.913 133.452 385.636 130.939C387.274 129.904 388.838 129.017 390.327 128.278C391.817 127.539 393.082 127.169 394.125 127.169C395.763 127.169 397.103 127.834 398.146 129.165C399.337 130.495 399.933 132.195 399.933 134.265C399.933 136.187 399.412 137.961 398.369 139.587C397.327 141.065 395.391 142.765 392.561 144.687C388.391 147.496 383.328 149.787 377.371 151.561C371.562 153.187 365.68 154 359.723 154Z" fill="#F7F7F4"/>
<path d="M466.172 41.7984C493.426 41.7984 507.053 55.9899 507.053 84.3729V144.687C507.053 147.348 506.234 149.491 504.595 151.117C503.106 152.743 501.021 153.557 498.34 153.557C495.66 153.557 493.5 152.743 491.862 151.117C490.224 149.491 489.405 147.348 489.405 144.687V134.043C486.575 140.4 482.256 145.352 476.448 148.9C470.64 152.3 463.938 154 456.343 154C449.343 154 442.865 152.596 436.908 149.787C431.1 146.978 426.483 143.061 423.058 138.035C419.632 133.008 417.92 127.465 417.92 121.404C417.92 113.273 420.005 106.991 424.175 102.556C428.345 97.9731 435.195 94.7209 444.727 92.7991C454.258 90.7295 467.512 89.6947 484.49 89.6947H489.405V82.3772C489.405 73.5076 487.543 67.0031 483.82 62.8639C480.246 58.7247 474.363 56.6551 466.172 56.6551C456.045 56.6551 445.769 59.39 435.344 64.8596C431.323 67.3727 428.493 68.6292 426.855 68.6292C425.068 68.6292 423.579 67.964 422.387 66.6335C421.196 65.3031 420.6 63.6031 420.6 61.5335C420.6 59.4639 421.196 57.6899 422.387 56.2117C423.728 54.5855 425.813 52.9594 428.642 51.3333C433.855 48.3768 439.737 46.0854 446.29 44.4593C452.992 42.6854 459.619 41.7984 466.172 41.7984ZM458.8 139.808C467.736 139.808 475.033 136.852 480.693 130.939C486.501 124.878 489.405 117.117 489.405 107.656V101.225H485.384C472.278 101.225 462.3 101.817 455.449 102.999C448.599 104.034 443.684 105.882 440.706 108.543C437.876 111.056 436.461 114.826 436.461 119.852C436.461 125.617 438.546 130.421 442.716 134.265C447.035 137.961 452.396 139.808 458.8 139.808Z" fill="#F7F7F4"/>
<path d="M594.907 41.7984C620.969 41.7984 634 56.0638 634 84.5947V144.687C634 147.496 633.181 149.713 631.543 151.339C630.053 152.817 627.894 153.557 625.064 153.557C622.235 153.557 620.001 152.817 618.363 151.339C616.724 149.713 615.905 147.496 615.905 144.687V85.7034C615.905 75.6511 613.895 68.3336 609.874 63.7509C606.002 59.1682 599.747 56.8769 591.109 56.8769C581.131 56.8769 573.163 59.9074 567.206 65.9683C561.249 72.0293 558.27 80.2337 558.27 90.5817V144.687C558.27 147.496 557.451 149.713 555.813 151.339C554.324 152.817 552.164 153.557 549.335 153.557C546.505 153.557 544.271 152.817 542.633 151.339C540.995 149.713 540.176 147.496 540.176 144.687V51.1116C540.176 48.4507 540.995 46.3072 542.633 44.6811C544.271 43.055 546.505 42.2419 549.335 42.2419C552.015 42.2419 554.1 43.055 555.59 44.6811C557.228 46.3072 558.047 48.3768 558.047 50.8898V62.1987C561.621 55.5464 566.61 50.5203 573.014 47.1202C579.418 43.5723 586.716 41.7984 594.907 41.7984Z" fill="#F7F7F4"/>
<path d="M63.3314 13.8589C63.3314 21.5129 57.0804 27.7178 49.3695 27.7178C41.6585 27.7178 35.4075 21.5129 35.4075 13.8589C35.4075 6.20484 41.6585 0 49.3695 0C57.0804 0 63.3314 6.20484 63.3314 13.8589Z" fill="#F7F7F4"/>
<path d="M144.311 13.8589C144.311 21.5129 138.06 27.7178 130.349 27.7178C122.638 27.7178 116.387 21.5129 116.387 13.8589C116.387 6.20484 122.638 0 130.349 0C138.06 0 144.311 6.20484 144.311 13.8589Z" fill="#F7F7F4"/>
</svg>
