<svg width="150" height="150" viewBox="0 0 150 150" fill="none" xmlns="http://www.w3.org/2000/svg">
<path d="M28.3213 67.1246C32.0837 44.4229 51.7962 27.1017 75.566 27.1017C99.3358 27.1017 119.048 44.4229 122.811 67.1246H139.813C135.923 35.0967 108.646 10.2827 75.566 10.2827C42.4939 10.2827 15.2089 35.0967 11.3269 67.1246H28.3213Z" fill="white"/>
<path d="M118.761 95.7169C111.029 111.795 94.6009 122.89 75.566 122.89C56.539 122.89 40.1026 111.795 32.3786 95.7169H14.2364C22.8771 121.296 47.0773 139.717 75.566 139.717C104.063 139.717 128.255 121.304 136.904 95.7169H118.761Z" fill="white"/>
<path d="M39.8315 115.461C40.0228 115.645 40.1185 115.804 40.1185 115.804L36.8264 119.224C36.8264 119.224 36.7148 119.176 36.5554 119.024C36.396 118.873 36.3402 118.753 36.3402 118.753L37.8308 117.207C38.2851 116.729 38.7873 116.195 39.1062 115.94L39.0822 115.916C38.8112 116.083 38.2373 116.282 37.7192 116.474L36.125 117C36.125 117 36.0373 116.968 35.9576 116.88C35.8619 116.792 35.846 116.729 35.846 116.729L36.2924 115.15C36.4598 114.616 36.6511 114.003 36.8105 113.732L36.7945 113.716C36.6032 114.003 36.125 114.505 35.6706 114.983L34.1083 116.609C34.1083 116.609 33.9967 116.569 33.8373 116.418C33.7018 116.29 33.6539 116.171 33.6539 116.171L36.946 112.751C36.946 112.751 37.0895 112.831 37.2728 113.006C37.4243 113.15 37.5358 113.325 37.5358 113.325L37.0098 115.15C36.8822 115.565 36.7387 115.995 36.6192 116.226L36.6431 116.242C36.7786 116.171 36.9699 116.075 37.2329 115.979C37.9902 115.732 38.7395 115.477 39.4967 115.206C39.5924 115.254 39.7279 115.366 39.8315 115.461Z" fill="black"/>
<path d="M41.4019 116.84C41.4019 116.84 41.5214 116.872 41.6968 117.016C41.8801 117.167 41.9359 117.279 41.9359 117.279L38.9149 120.945C38.9149 120.945 38.7873 120.898 38.62 120.762C38.4366 120.611 38.3888 120.507 38.3888 120.507L41.4019 116.84Z" fill="black"/>
<path d="M43.2272 118.315C43.2272 118.315 43.3468 118.347 43.5301 118.474C43.7214 118.618 43.7852 118.721 43.7852 118.721L41.2982 122.117L42.9164 123.305C42.8925 123.385 42.8526 123.488 42.7888 123.576C42.7251 123.664 42.6533 123.727 42.5656 123.783L40.3895 122.189L43.2272 118.315Z" fill="black"/>
<path d="M48.5918 121.934C48.6795 121.958 48.7911 121.998 48.9106 122.069C49.0302 122.149 49.1258 122.237 49.2056 122.3L46.7505 123.377L46.878 126.445C46.878 126.445 46.7345 126.414 46.5113 126.278C46.2961 126.15 46.2005 126.031 46.2005 126.031L46.0729 123.377L45.6504 123.114L44.5026 124.979C44.5026 124.979 44.391 124.971 44.1838 124.843C44.0004 124.732 43.9207 124.628 43.9207 124.628L46.4157 120.587C46.4157 120.587 46.5432 120.611 46.7425 120.73C46.9338 120.842 47.0055 120.945 47.0055 120.945L45.9533 122.651L46.3678 122.906L48.5918 121.934Z" fill="black"/>
<path d="M53.7809 124.413C53.7809 124.413 53.9085 124.429 54.0998 124.508C54.307 124.604 54.3867 124.7 54.3867 124.7L50.0983 128.494C50.0983 128.494 49.9708 128.478 49.7715 128.39C49.5802 128.295 49.4925 128.207 49.4925 128.207L53.7809 124.413Z" fill="black"/>
<path d="M58.9702 126.645C59.7912 126.924 60.0383 127.601 59.7832 128.335C59.5999 128.861 59.2252 129.06 58.9462 129.124C59.1694 129.363 59.4404 129.777 59.2252 130.407C58.9622 131.18 58.2926 131.531 57.4238 131.236L55.694 130.638L57.2723 126.063L58.9702 126.645ZM57.4716 130.686C58.0455 130.885 58.3803 130.67 58.5477 130.176C58.731 129.642 58.5636 129.299 58.0056 129.108L57.0571 128.773L56.5151 130.351L57.4716 130.686ZM58.1412 128.614C58.6593 128.789 58.9781 128.542 59.1216 128.103C59.273 127.657 59.1774 127.274 58.6513 127.099L57.7426 126.788L57.2165 128.303L58.1412 128.614Z" fill="black"/>
<path d="M63.3463 127.92C64.1992 128.135 64.6137 128.829 64.4064 129.65C64.247 130.295 63.7767 130.694 63.155 130.718L63.8006 132.974C63.8006 132.974 63.6572 132.99 63.4021 132.918C63.155 132.854 63.0354 132.774 63.0354 132.774L62.4296 130.598L61.6564 130.407L61.1781 132.312C61.1781 132.312 61.0586 132.328 60.8434 132.28C60.6042 132.217 60.5165 132.153 60.5165 132.153L61.6803 127.506L63.3463 127.92ZM61.7919 129.857L62.7166 130.088C63.2267 130.216 63.5854 129.993 63.7129 129.474C63.8405 128.948 63.6332 128.582 63.1231 128.454L62.1984 128.223L61.7919 129.857Z" fill="black"/>
<path d="M68.8862 128.996C68.9022 129.076 68.9101 129.172 68.8942 129.259C68.8782 129.363 68.8384 129.459 68.7906 129.546L66.7739 129.211L66.5188 130.75L68.2007 131.029C68.2166 131.109 68.2246 131.212 68.2087 131.3C68.1927 131.395 68.1529 131.491 68.105 131.571L66.4231 131.292L66.1521 132.886L68.2406 133.229C68.2565 133.324 68.2645 133.412 68.2485 133.508C68.2326 133.603 68.1927 133.691 68.1449 133.787L65.3869 133.332L66.176 128.55L68.8862 128.996Z" fill="black"/>
<path d="M72.9913 131.101C72.8956 130.471 72.9036 130.104 72.9036 130.104H72.8717C72.8717 130.104 72.8319 130.463 72.6485 131.077L71.684 134.106C71.5884 134.122 71.405 134.138 71.2456 134.122C71.0862 134.114 70.9427 134.074 70.863 134.05L69.8427 129.227C69.8427 129.227 69.9543 129.188 70.1855 129.203C70.4246 129.219 70.5282 129.267 70.5282 129.267L71.2058 132.48C71.3014 132.926 71.3413 133.38 71.3413 133.38H71.3652C71.3652 133.38 71.4449 132.934 71.5804 132.504L72.5848 129.395C72.5848 129.395 72.6964 129.355 72.9435 129.371C73.1985 129.387 73.3022 129.443 73.3022 129.443L73.908 132.647C73.9956 133.117 74.0036 133.548 74.0036 133.548H74.0275C74.0275 133.548 74.1152 133.149 74.2667 132.671L75.3428 129.57C75.3428 129.57 75.4703 129.53 75.6536 129.538C75.8529 129.554 75.9725 129.602 75.9725 129.602L74.3623 134.257C74.3623 134.257 74.2029 134.297 73.9717 134.289C73.7406 134.273 73.5652 134.209 73.5652 134.209L72.9913 131.101Z" fill="black"/>
<path d="M80.795 129.156C80.795 129.156 80.9146 129.1 81.1218 129.084C81.345 129.068 81.4566 129.108 81.4566 129.108L79.5834 134.512C79.5834 134.512 79.4638 134.568 79.2486 134.584C79.0334 134.6 78.9138 134.56 78.9138 134.56L80.795 129.156Z" fill="black"/>
<path d="M86.032 128.542C86.8211 128.398 87.3632 128.494 87.3632 128.494C87.403 128.685 87.3791 128.901 87.2755 129.06C87.2755 129.06 86.7972 128.996 86.2313 129.092C85.5298 129.219 85.2429 129.554 85.3305 130.032C85.4182 130.543 86.0161 130.559 86.6697 130.646C87.3233 130.75 87.9929 130.917 88.1523 131.786C88.3117 132.679 87.8255 133.277 86.7414 133.468C85.8646 133.627 85.2588 133.452 85.2588 133.452C85.219 133.277 85.2508 133.053 85.3226 132.886C85.3226 132.886 85.9842 132.974 86.5979 132.87C87.2835 132.751 87.5625 132.432 87.4668 131.93C87.3791 131.459 86.9726 131.364 86.4943 131.3C85.761 131.188 84.8523 131.18 84.6769 130.184C84.5095 129.379 84.9479 128.733 86.032 128.542Z" fill="black"/>
<path d="M90.3364 127.649C90.5835 127.585 90.735 127.593 90.735 127.593L93.5806 131.746C93.5806 131.746 93.477 131.826 93.2379 131.89C93.0147 131.946 92.8951 131.93 92.8951 131.93L92.1937 130.893L90.2726 131.404L90.169 132.655C90.169 132.655 90.0734 132.735 89.8582 132.782C89.6589 132.838 89.5393 132.822 89.5393 132.822L89.9538 127.801C89.9538 127.801 90.1053 127.713 90.3364 127.649ZM90.4879 128.382C90.4879 128.382 90.5038 128.661 90.4719 129.012L90.3125 130.814L91.8589 130.407L90.8306 128.917C90.6234 128.606 90.5038 128.374 90.5038 128.374L90.4879 128.382Z" fill="black"/>
<path d="M94.9517 128.056C94.569 127.729 94.2821 127.378 94.2821 127.378L94.2582 127.386C94.2582 127.386 94.4574 127.793 94.6886 128.43L95.6451 131.061C95.6451 131.061 95.5654 131.14 95.3582 131.212C95.1509 131.284 95.0473 131.276 95.0473 131.276L93.4212 126.812C93.4212 126.812 93.5408 126.716 93.7958 126.629C94.0509 126.533 94.1864 126.533 94.1864 126.533L96.801 128.813C97.1756 129.14 97.4944 129.506 97.4944 129.506H97.5104C97.5104 129.506 97.2952 129.052 97.0799 128.47L96.1154 125.832C96.1154 125.832 96.1951 125.752 96.4024 125.672C96.6096 125.593 96.7133 125.608 96.7133 125.608L98.3394 130.072C98.3394 130.072 98.2357 130.16 97.9807 130.256C97.7256 130.351 97.5741 130.351 97.5741 130.351L94.9517 128.056Z" fill="black"/>
<path d="M99.535 124.309C100.659 123.775 101.592 124.038 102.357 125.648C103.114 127.259 102.731 128.151 101.6 128.677L100.252 129.323L98.1799 124.947L99.535 124.309ZM101.313 128.183C102.022 127.84 102.333 127.322 101.687 125.959C101.042 124.588 100.436 124.508 99.7263 124.843L99.0408 125.17L100.627 128.51L101.313 128.183Z" fill="black"/>
<path d="M105.808 122.858C105.362 122.396 105.163 122.093 105.163 122.093L105.139 122.109C105.139 122.109 105.314 122.428 105.513 123.034L106.462 126.063C106.39 126.135 106.255 126.246 106.119 126.326C105.992 126.414 105.848 126.461 105.76 126.493L102.158 123.137C102.158 123.137 102.229 123.034 102.429 122.914C102.628 122.795 102.747 122.779 102.747 122.779L105.147 125.011C105.474 125.322 105.768 125.672 105.768 125.672L105.792 125.656C105.792 125.656 105.609 125.25 105.466 124.811L104.501 121.695C104.501 121.695 104.565 121.599 104.78 121.472C104.995 121.336 105.115 121.32 105.115 121.32L107.45 123.6C107.785 123.935 108.048 124.277 108.048 124.277L108.064 124.269C108.064 124.269 107.905 123.895 107.761 123.416L106.86 120.26C106.86 120.26 106.94 120.156 107.1 120.061C107.275 119.949 107.403 119.933 107.403 119.933L108.766 124.668C108.766 124.668 108.654 124.787 108.455 124.915C108.255 125.035 108.08 125.09 108.08 125.09L105.808 122.858Z" fill="black"/>
<path d="M108.319 119.176C108.319 119.176 108.383 119.072 108.558 118.945C108.75 118.801 108.869 118.777 108.869 118.777L111.683 122.603C111.683 122.603 111.611 122.715 111.436 122.842C111.237 122.986 111.133 123.01 111.133 123.01L108.319 119.176Z" fill="black"/>
<path d="M111.468 116.553C112.042 116.083 112.496 115.995 112.496 115.995C112.647 116.155 112.671 116.338 112.671 116.521C112.671 116.521 112.273 116.649 111.906 116.96C111.308 117.454 111.149 118.124 112.113 119.279C113.078 120.427 113.74 120.371 114.337 119.877C114.744 119.535 114.959 119.16 114.959 119.16C115.142 119.176 115.318 119.279 115.453 119.431C115.453 119.431 115.262 119.885 114.664 120.387C113.676 121.216 112.616 120.985 111.563 119.734C110.519 118.466 110.479 117.382 111.468 116.553Z" fill="black"/>
<path d="M115.326 113.134C115.326 113.134 115.374 113.014 115.533 112.855C115.692 112.703 115.812 112.647 115.812 112.647L119.152 116.019C119.152 116.019 119.104 116.139 118.945 116.29C118.761 116.474 118.666 116.505 118.666 116.505L117.159 114.991L115.724 116.41L117.223 117.924C117.223 117.924 117.167 118.044 117.008 118.203C116.832 118.371 116.729 118.411 116.729 118.411L113.389 115.039C113.389 115.039 113.437 114.927 113.596 114.768C113.755 114.608 113.883 114.561 113.883 114.561L115.302 115.995L116.729 114.576L115.326 113.134Z" fill="black"/>
<path d="M86.7972 40.8997H81.9508C78.6986 40.8997 76.0602 43.5381 76.0602 46.7903C76.0602 50.0425 78.6986 52.6809 81.9508 52.6809H86.7972C90.0494 52.6809 92.6879 50.0425 92.6879 46.7903C92.6879 43.5381 90.0494 40.8997 86.7972 40.8997ZM86.3349 50.0505H82.4211C80.6196 50.0505 79.1609 48.5918 79.1609 46.7903C79.1609 44.9888 80.6196 43.5301 82.4211 43.5301H86.3349C88.1364 43.5301 89.5951 44.9888 89.5951 46.7903C89.5951 48.5918 88.1364 50.0505 86.3349 50.0505Z" fill="white"/>
<path d="M65.4028 36.8264V56.6744C65.4028 58.2368 69.9703 59.4962 75.5979 59.4962C81.2334 59.4962 85.7929 58.2368 85.7929 56.6744V36.8264H65.4028Z" fill="white"/>
<path d="M65.4028 45.77L70.2652 59.0817C71.8196 59.3447 73.6449 59.4962 75.5979 59.4962C77.5667 59.4962 79.408 59.3447 80.9704 59.0737L85.7929 45.8656V36.8264H65.4028V45.77Z" fill="#7A7A77"/>
<path d="M74.5696 59.4723C74.9044 59.4803 75.2471 59.4882 75.5819 59.4882C75.9327 59.4882 76.2834 59.4803 76.6261 59.4643L84.8922 36.8503L75.6537 36.8264H75.5979L66.3036 36.8583L74.5696 59.4723Z" fill="white"/>
<path d="M70.6159 38.8351L74.5616 49.6439C74.8964 49.6598 75.2391 49.6598 75.5739 49.6598C75.9247 49.6598 76.2754 49.6519 76.6181 49.6359L80.5638 38.8351H70.6159Z" fill="#F4F5F4"/>
<path d="M85.7929 36.8264C85.7929 38.3887 81.2254 39.6482 75.5979 39.6482C69.9703 39.6482 65.4028 38.3887 65.4028 36.8264C65.4028 35.2641 69.9703 34.0046 75.5979 34.0046C81.2254 34.0046 85.7929 35.2641 85.7929 36.8264Z" fill="#CDCDCD"/>
<path d="M75.5979 39.8076C69.7869 39.8076 65.2434 38.5003 65.2434 36.8264C65.2434 35.1525 69.7869 33.8452 75.5979 33.8452C81.4088 33.8452 85.9523 35.1525 85.9523 36.8264C85.9523 38.5003 81.4088 39.8076 75.5979 39.8076ZM75.5979 34.1641C69.5877 34.1641 65.5543 35.5431 65.5543 36.8264C65.5543 38.1177 69.5877 39.4967 75.5979 39.4967C81.6081 39.4967 85.6414 38.1177 85.6414 36.8264C85.6414 35.5351 81.6081 34.1641 75.5979 34.1641Z" fill="white"/>
<path d="M75.5979 34.5865C80.7791 34.5865 85.0516 35.6547 85.7052 37.0416C85.761 36.9221 85.7929 36.7945 85.7929 36.667C85.7929 35.1126 81.2254 33.8452 75.5979 33.8452C69.9703 33.8452 65.4028 35.1046 65.4028 36.667C65.4028 36.7945 65.4347 36.9141 65.4905 37.0416C66.1441 35.6467 70.4166 34.5865 75.5979 34.5865Z" fill="#CDCDCD"/>
<path d="M85.7052 37.4083L85.5617 37.1054C84.94 35.7822 80.5638 34.738 75.5979 34.738C70.6319 34.738 66.2557 35.7822 65.626 37.1054L65.4905 37.4083L65.347 37.1054C65.2753 36.9539 65.2434 36.8105 65.2434 36.667C65.2434 35.001 69.7869 33.6858 75.5979 33.6858C81.4088 33.6858 85.9523 34.9931 85.9523 36.667C85.9523 36.8105 85.9204 36.9619 85.8487 37.1054L85.7052 37.4083ZM75.5979 34.4271C80.4602 34.4271 84.5175 35.3438 85.6414 36.651C85.6096 35.3757 81.5762 34.0046 75.5979 34.0046C69.6195 34.0046 65.5941 35.3757 65.5543 36.651C66.6782 35.3438 70.7355 34.4271 75.5979 34.4271Z" fill="white"/>
<path d="M75.6138 39.9909C71.979 39.9909 68.2246 39.1858 68.2246 37.8387C68.2246 36.4916 71.987 35.6865 75.6138 35.6865C79.2008 35.6865 83.003 36.4438 83.003 37.8387C83.003 39.1858 79.2486 39.9909 75.6138 39.9909ZM75.6138 35.9894C71.4449 35.9894 68.5355 36.9619 68.5355 37.8307C68.5355 38.6996 71.4449 39.6721 75.6138 39.6721C79.7827 39.6721 82.6921 38.6996 82.6921 37.8307C82.6921 36.9619 79.7907 35.9894 75.6138 35.9894Z" fill="white"/>
<path d="M75.5979 39.4967C70.592 39.4967 66.4231 38.4924 65.5623 37.1771C65.4586 37.3445 65.4028 37.5119 65.4028 37.6793C65.4028 39.2416 69.9703 40.509 75.5979 40.509C81.2254 40.509 85.7929 39.2496 85.7929 37.6793C85.7929 37.5119 85.7371 37.3445 85.6335 37.1771C84.7726 38.4924 80.6117 39.4967 75.5979 39.4967Z" fill="#CDCDCD"/>
<path d="M75.5979 40.6605C69.7869 40.6605 65.2434 39.3533 65.2434 37.6794C65.2434 37.4801 65.3072 37.2888 65.4347 37.0975L65.5623 36.8982L65.6978 37.0975C66.5347 38.3728 70.7913 39.3453 75.5979 39.3453C80.4124 39.3453 84.661 38.3728 85.498 37.0975L85.6255 36.8982L85.753 37.0975C85.8806 37.2888 85.9443 37.4881 85.9443 37.6794C85.9523 39.3533 81.4088 40.6605 75.5979 40.6605ZM65.5941 37.4641C65.5702 37.5359 65.5543 37.6076 65.5543 37.6794C65.5543 38.9707 69.5877 40.3497 75.5979 40.3497C81.6081 40.3497 85.6414 38.9707 85.6414 37.6794C85.6414 37.6156 85.6255 37.5439 85.6016 37.4641C84.4298 38.7475 80.3327 39.6482 75.5979 39.6482C70.863 39.6482 66.7659 38.7475 65.5941 37.4641Z" fill="white"/>
<path d="M75.5979 59.1534C70.592 59.1534 66.4231 58.1571 65.5623 56.8339C65.4586 57.0013 65.4028 57.1686 65.4028 57.336C65.4028 58.8984 69.9703 60.1578 75.5979 60.1578C81.2254 60.1578 85.7929 58.8984 85.7929 57.336C85.7929 57.1686 85.7371 57.0013 85.6335 56.8339C84.7726 58.1571 80.6117 59.1534 75.5979 59.1534Z" fill="#CDCDCD"/>
<path d="M75.5979 60.3251C69.7869 60.3251 65.2434 59.0179 65.2434 57.344C65.2434 57.1447 65.3072 56.9454 65.4347 56.7541L65.5623 56.5548L65.6978 56.7541C66.5347 58.0374 70.7913 59.0019 75.5979 59.0019C80.4044 59.0019 84.661 58.0374 85.498 56.7541L85.6255 56.5548L85.761 56.7541C85.8885 56.9454 85.9523 57.1447 85.9523 57.344C85.9523 59.0099 81.4088 60.3251 75.5979 60.3251ZM65.5941 57.1287C65.5702 57.2005 65.5543 57.2722 65.5543 57.344C65.5543 58.6353 69.5877 60.0143 75.5979 60.0143C81.6081 60.0143 85.6414 58.6353 85.6414 57.344C85.6414 57.2722 85.6255 57.2084 85.6016 57.1287C84.4298 58.4041 80.3327 59.3128 75.5979 59.3128C70.863 59.3128 66.7659 58.4041 65.5941 57.1287Z" fill="white"/>
<path d="M82.4928 44.9808C80.6754 45.4432 78.2602 45.7221 75.5978 45.7221C72.9355 45.7221 70.5202 45.4352 68.7028 44.9808L66.8217 47.8425L68.7028 51.9635C70.5202 52.4258 72.9355 52.7048 75.5978 52.7048C78.2522 52.7048 80.6754 52.4258 82.4928 51.9635L84.374 47.8425L82.4928 44.9808Z" fill="white"/>
<path d="M75.5978 52.115C73.2623 52.115 70.9906 51.8838 69.205 51.4773L69.0934 51.4534L67.4434 47.8504L68.95 45.5627L69.1094 45.5946C70.9427 46.0012 73.2464 46.2243 75.5978 46.2243C77.9413 46.2243 80.245 46.0012 82.0863 45.5946L82.2457 45.5627L83.7523 47.8504L82.1023 51.4454L81.9907 51.4693C80.2051 51.8838 77.9334 52.115 75.5978 52.115ZM69.4282 51.0389C71.1579 51.4295 73.342 51.6367 75.5978 51.6367C77.8537 51.6367 80.0377 51.4215 81.7675 51.0389L83.2102 47.8823L82.0305 46.0809C80.1892 46.4714 77.9095 46.6867 75.5978 46.6867C73.2862 46.6867 71.0065 46.4714 69.1652 46.0809L67.9855 47.8823L69.4282 51.0389Z" fill="#CDCDCD"/>
<path d="M125.035 100.699C123.297 104.079 121.232 107.267 118.873 110.208L119.686 110.854C122.197 107.721 124.381 104.318 126.198 100.699H125.035Z" fill="black"/>
<path d="M25.7307 100.699H24.5669C26.3843 104.318 28.5684 107.721 31.0793 110.854L31.8923 110.208C29.5329 107.259 27.4604 104.071 25.7307 100.699Z" fill="black"/>
<path d="M31.3982 35.3677C31.5177 35.2401 31.6612 35.1206 31.8047 35.0488L32.4025 36.0213L32.8409 35.543C32.9685 35.5988 33.1119 35.6865 33.2156 35.7901C33.3431 35.9097 33.4706 36.0612 33.5424 36.1967L32.9206 36.8742L33.917 38.4923L34.3475 38.03C34.3475 38.03 34.5388 38.1018 34.754 38.301C34.9612 38.4923 35.0569 38.6836 35.0569 38.6836L34.4511 39.3452L34.9931 40.2221C34.9294 40.3735 34.8257 40.5329 34.7062 40.6605C34.5786 40.796 34.4351 40.9076 34.2837 40.9953L33.7417 40.1105L32.9446 40.9793L33.4866 41.8641C33.4148 42.0235 33.3112 42.1909 33.1837 42.3185C33.0721 42.446 32.9286 42.5496 32.7772 42.6293L32.2351 41.7525L31.7648 42.2627C31.7648 42.2627 31.5895 42.1909 31.3742 41.9916C31.1271 41.7685 31.0554 41.609 31.0554 41.609L31.709 40.8996L30.7126 39.2815L30.2503 39.7837C30.0989 39.7039 29.9634 39.6083 29.8438 39.4967C29.7242 39.3851 29.6126 39.2576 29.5409 39.13L30.1866 38.4365L29.5967 37.4641C29.6605 37.3126 29.7641 37.1532 29.8837 37.0336C30.0112 36.8981 30.1547 36.7786 30.3061 36.6988L30.896 37.6713L31.6931 36.8025L31.1032 35.838C31.167 35.6626 31.2706 35.5032 31.3982 35.3677ZM32.4185 40.1184L33.2156 39.2496L32.2192 37.6315L31.4221 38.4923L32.4185 40.1184Z" fill="black"/>
<path d="M34.483 31.0873C35.2881 30.3779 35.9576 30.2344 35.9576 30.2344C36.2446 30.5134 36.2924 30.8402 36.2924 31.167C36.2924 31.167 35.7424 31.3822 35.2801 31.7887C34.5149 32.4663 34.2997 33.359 35.6229 34.8576C36.9461 36.3641 37.8308 36.2366 38.604 35.5591C39.1301 35.0967 39.4171 34.5706 39.4171 34.5706C39.7439 34.5706 40.0787 34.762 40.3099 35.033C40.3099 35.033 40.0468 35.7105 39.2098 36.4518C37.775 37.7192 36.1808 37.4562 34.6424 35.7105C33.112 33.9648 33.0482 32.3547 34.483 31.0873Z" fill="black"/>
<path d="M40.2141 26.7749C40.2141 26.7749 40.4055 26.8626 40.6047 27.1416C40.7801 27.3807 40.8518 27.6358 40.8518 27.6358L38.7236 29.1901L42.1511 33.8851C42.1511 33.8851 42.0316 34.0844 41.6968 34.3315C41.37 34.5706 41.1468 34.6185 41.1468 34.6185L37.0895 29.0626L40.2141 26.7749Z" fill="black"/>
<path d="M45.2758 23.6742C45.5787 23.4909 45.8417 23.4351 45.8417 23.4351L46.7823 28.7119C47.0932 30.4416 46.4077 31.1112 45.8577 31.438C45.5229 31.6373 45.2758 31.6692 45.2758 31.6692C45.2758 31.6692 45.0925 31.5496 44.941 31.2946C44.8055 31.0634 44.7417 30.8402 44.7417 30.8402C44.7417 30.8402 44.9729 30.7206 45.1562 30.609C45.491 30.4098 45.7541 30.067 45.6425 29.1344L45.4033 29.2779L41.0192 26.3047C41.0192 26.3047 41.1627 26.1133 41.5533 25.8902C41.9917 25.6271 42.1989 25.6032 42.1989 25.6032L44.6381 27.2692C45.1642 27.6358 45.4751 27.9387 45.4751 27.9387L45.507 27.9228C45.507 27.9228 45.3714 27.4605 45.2678 26.8626L44.7896 24.0568C44.7975 24.0568 44.933 23.8735 45.2758 23.6742Z" fill="black"/>
<path d="M47.2208 22.6458C47.2208 22.6458 47.3483 22.4944 47.7548 22.319C48.1215 22.1676 48.3606 22.1516 48.3606 22.1516L50.6563 27.4923L52.4578 26.727L50.1541 21.3864C50.1541 21.3864 50.2817 21.235 50.6962 21.0596C51.0708 20.9002 51.286 20.9002 51.286 20.9002L53.5897 26.2408L55.3911 25.4676L53.0875 20.127C53.0875 20.127 53.207 19.9755 53.6295 19.8002C54.0042 19.6407 54.2194 19.6407 54.2194 19.6407L56.523 24.9814L57.2085 24.6864L58.1571 26.8865C58.0375 27.022 57.8622 27.1176 57.6868 27.1973C57.5114 27.2771 57.3281 27.3169 57.1448 27.3249L56.6107 26.0973L49.9389 28.9749L47.2208 22.6458Z" fill="black"/>
<path d="M60.5165 17.6719C60.6122 17.7914 60.6919 17.9349 60.7397 18.0943C60.7875 18.2697 60.8114 18.453 60.7955 18.6364L58.1411 19.3936L58.6752 21.2589L60.8593 20.6291C60.9549 20.7647 61.0426 20.9081 61.0825 21.0676C61.1303 21.235 61.1542 21.4103 61.1303 21.5857L58.9462 22.2154L59.5042 24.1763L62.2462 23.3951C62.3419 23.5227 62.4296 23.6741 62.4694 23.8335C62.5173 24.0009 62.5412 24.1763 62.5173 24.3517L58.5795 25.4756L56.6585 18.7799L60.5165 17.6719Z" fill="black"/>
<path d="M66.1043 16.6595C66.1043 16.6595 66.2956 16.54 66.6941 16.4682C67.0927 16.3965 67.3239 16.4443 67.3239 16.4443L68.5036 23.1321C68.5036 23.1321 68.3202 23.2516 67.9217 23.3234C67.4753 23.4031 67.284 23.3473 67.284 23.3473L66.7659 20.4378L64.247 20.8842L64.7651 23.7937C64.7651 23.7937 64.5579 23.9132 64.1673 23.985C63.7289 24.0647 63.5456 24.0089 63.5456 24.0089L62.3658 17.3211C62.3658 17.3211 62.5492 17.2016 62.9477 17.1298C63.3543 17.0581 63.5775 17.1059 63.5775 17.1059L64.0637 19.84L66.5746 19.3936L66.1043 16.6595Z" fill="black"/>
<path d="M72.9594 15.982C73.1268 15.9182 73.35 15.8704 73.5732 15.8545C73.8043 15.8385 74.0434 15.8625 74.2348 15.9023L72.2978 19.1625L74.9761 22.6618C74.9761 22.6618 74.729 22.7654 74.2507 22.7973C73.8043 22.8292 73.5413 22.7574 73.5413 22.7574L71.3094 19.8639L70.8789 19.8958L71.0782 22.9248C71.0782 22.9248 70.9108 23.0205 70.4644 23.0524C70.0659 23.0763 69.8427 23.0046 69.8427 23.0046L69.3963 16.2291C69.3963 16.2291 69.6035 16.1255 70.018 16.1016C70.4246 16.0777 70.6318 16.1494 70.6318 16.1494L70.8152 18.9154L71.2536 18.8835L72.9594 15.982Z" fill="black"/>
<path d="M78.3877 15.9023C78.858 15.9183 79.137 16.0219 79.137 16.0219L81.1616 22.901C81.1616 22.901 80.9384 22.9807 80.4761 22.9647C80.0616 22.9488 79.8783 22.8531 79.8783 22.8531L79.4239 21.2828L76.7855 21.1712L76.2036 22.6937C76.2036 22.6937 75.9884 22.7734 75.5978 22.7575C75.2311 22.7415 75.0319 22.6459 75.0319 22.6459L77.6304 15.9581C77.6304 15.9581 77.9573 15.8864 78.3877 15.9023ZM78.2681 17.1937C78.2681 17.1937 78.1486 17.6799 77.9333 18.2538L77.1761 20.1828L79.137 20.2705L78.5631 18.2777C78.3877 17.6719 78.308 17.1937 78.308 17.1937H78.2681Z" fill="black"/>
<path d="M86.4385 16.8429C86.6139 16.827 86.8451 16.819 87.0603 16.8509C87.2915 16.8828 87.5146 16.9625 87.698 17.0342L85.1074 19.8002L86.9806 23.7857C86.9806 23.7857 86.7175 23.8336 86.2393 23.7618C85.8009 23.6981 85.5538 23.5705 85.5538 23.5705L83.9835 20.2625L83.553 20.1987L83.0987 23.1959C83.0987 23.1959 82.9153 23.2596 82.4769 23.1879C82.0863 23.1321 81.8791 23.0125 81.8791 23.0125L82.8914 16.3089C82.8914 16.3089 83.1146 16.2531 83.5291 16.3168C83.9277 16.3806 84.119 16.4922 84.119 16.4922L83.7045 19.2263L84.1349 19.29L86.4385 16.8429Z" fill="black"/>
<path d="M91.4922 17.7516C93.1422 18.1821 93.9314 19.4893 93.3096 21.9205C92.6799 24.3437 91.3806 25.1169 89.7067 24.6865C88.0328 24.2561 87.2675 22.9488 87.8973 20.5176C88.511 18.1183 89.8422 17.3212 91.4922 17.7516ZM91.2371 18.7401C90.3763 18.5169 89.6668 18.8596 89.1567 20.8444C88.6465 22.8213 89.1009 23.4669 89.9618 23.6901C90.8386 23.9213 91.5321 23.5705 92.0422 21.5857C92.5524 19.6009 92.114 18.9712 91.2371 18.7401Z" fill="black"/>
<path d="M98.4111 19.9995C98.4111 19.9995 98.6343 19.9915 99.0089 20.1429C99.3995 20.2944 99.559 20.4538 99.559 20.4538L99.3198 21.0516C100.914 21.6814 101.799 22.7575 101.034 24.6865C100.268 26.6155 98.8894 26.7908 97.2952 26.1611L97.0002 26.9104C97.0002 26.9104 96.7611 26.9104 96.3944 26.7589C95.9799 26.5995 95.8524 26.4481 95.8524 26.4481L96.1473 25.6988C94.5531 25.0691 93.6683 23.993 94.4335 22.064C95.1988 20.1429 96.5778 19.9596 98.172 20.5893L98.4111 19.9995ZM97.8372 21.4661C96.9763 21.1234 96.1553 21.1712 95.6133 22.5343C95.0712 23.9053 95.6451 24.4872 96.506 24.8379L97.8372 21.4661ZM97.6539 25.2843C98.5147 25.6271 99.3437 25.5792 99.8778 24.2162C100.42 22.8451 99.8459 22.2553 98.985 21.9125L97.6539 25.2843Z" fill="black"/>
<path d="M107.339 24.2959C107.323 24.4473 107.283 24.6067 107.203 24.7502C107.116 24.9096 107.004 25.0611 106.868 25.1727L104.437 23.8734L103.529 25.5792L105.529 26.6473C105.505 26.8067 105.466 26.9741 105.386 27.1176C105.306 27.2691 105.195 27.4125 105.059 27.5241L103.058 26.456L102.094 28.2575L104.613 29.5966C104.589 29.7561 104.549 29.9234 104.469 30.0669C104.389 30.2184 104.278 30.3619 104.142 30.4734L100.531 28.5524L103.808 22.4147L107.339 24.2959Z" fill="black"/>
<path d="M112.624 27.7154C113.038 27.9944 113.166 28.1937 113.166 28.1937L109.363 33.8133C109.363 33.8133 109.148 33.7734 108.813 33.5423C108.439 33.2872 108.343 33.1198 108.343 33.1198L109.666 31.1669C110.718 29.6125 111.3 28.919 111.3 28.919L111.268 28.9031C111.268 28.9031 110.782 29.2857 109.06 30.2582L106.366 31.7807C106.358 31.7727 106.095 31.701 105.689 31.4299C105.242 31.127 105.131 30.9437 105.131 30.9437L108.933 25.3241C108.933 25.3241 109.148 25.3639 109.483 25.5871C109.826 25.8183 109.953 26.0176 109.961 26.0176L108.646 27.9625C107.674 29.4053 106.916 30.3618 106.916 30.3618L106.948 30.3778C107.434 29.9712 108.383 29.4133 109.308 28.8951L111.986 27.3806C111.986 27.3886 112.209 27.4364 112.624 27.7154ZM113.166 25.627C113.325 25.8422 113.365 26.177 113.285 26.456C113.285 26.456 112.432 26.735 111.508 26.1053C110.575 25.4755 110.519 24.5828 110.519 24.5828C110.742 24.4074 111.069 24.3118 111.332 24.3835C111.332 24.3835 111.484 24.8857 112.066 25.2763C112.64 25.6748 113.166 25.627 113.166 25.627Z" fill="black"/>
<path d="M117.749 31.9402C117.749 31.9402 117.972 32.0119 118.275 32.2749C118.586 32.538 118.69 32.7373 118.69 32.7373L114.274 37.8946C114.274 37.8946 114.066 37.8308 113.755 37.5677C113.413 37.2728 113.333 37.0895 113.333 37.0895L115.254 34.8496L113.317 33.1916L111.396 35.4315C111.396 35.4315 111.173 35.3518 110.87 35.0967C110.535 34.8018 110.455 34.6264 110.455 34.6264L114.871 29.4691C114.871 29.4691 115.079 29.5409 115.39 29.8039C115.708 30.0749 115.804 30.2822 115.804 30.2822L114.003 32.3865L115.94 34.0445L117.749 31.9402Z" fill="black"/>
<path d="M118.339 42.1751C118.339 42.1751 118.156 42.1114 117.845 41.7766C117.566 41.4816 117.494 41.2744 117.494 41.2744L119.383 39.5128L118.793 38.8751L115.9 39.5526C115.9 39.5526 115.661 39.4171 115.35 39.0983C115.047 38.7715 114.943 38.5323 114.943 38.5323L117.996 37.8229C117.645 37.0178 117.845 36.1569 118.562 35.4874C119.503 34.6106 120.714 34.6424 121.599 35.599L123.369 37.4881L118.339 42.1751ZM120.961 36.42C120.499 35.9258 119.957 35.9417 119.431 36.428C118.913 36.9142 118.857 37.4562 119.319 37.9504L120.124 38.8113L121.766 37.2809L120.961 36.42Z" fill="black"/>
<path d="M29.0148 42.2308C24.9894 47.9302 21.9763 54.3868 20.2625 61.3535H21.3306C23.0125 54.6737 25.914 48.4722 29.7641 42.9801L29.0148 42.2308Z" fill="black"/>
<path d="M122.197 42.2308C126.222 47.9302 129.235 54.3868 130.949 61.3535H129.873C128.191 54.6737 125.29 48.4722 121.44 42.9801L122.197 42.2308Z" fill="black"/>
<path d="M22.0002 83.298V86.582C22.0002 90.5357 20.0234 92.7915 16.2132 92.7915C12.403 92.7915 10.4262 90.5357 10.4262 86.582V73.7406C10.4262 69.7869 12.403 67.5311 16.2132 67.5311C20.0234 67.5311 22.0002 69.7869 22.0002 73.7406V76.1399H18.3335V73.4935C18.3335 71.7319 17.5603 71.0623 16.3248 71.0623C15.0893 71.0623 14.3161 71.7319 14.3161 73.4935V86.8291C14.3161 88.5908 15.0893 89.2284 16.3248 89.2284C17.5603 89.2284 18.3335 88.5908 18.3335 86.8291V83.298H22.0002Z" fill="white"/>
<path d="M25.8104 92.5046V67.8181H36.0373V71.3493H29.6844V92.5126H25.8104V92.5046Z" fill="white"/>
<path d="M48.6635 86.2314C47.7468 90.6792 46.2323 92.8952 40.8359 92.5445V89.085C42.8127 89.2285 43.9367 88.8698 44.2555 87.0763L44.2874 86.8611L38.9229 67.8102H42.7649L44.8852 76.2436L46.0809 82.0306L46.9976 76.2834L48.7592 67.8182H52.8165L48.6635 86.2314Z" fill="white"/>
<path d="M74.2029 89.0531H75.9326V95.8285H72.1623V92.5126H55.8614V67.8181H59.7433V88.9814H63.0912V67.8181H66.9731V88.9814H70.321V67.8181H74.2029V89.0531Z" fill="white"/>
<path d="M83.3457 78.2204H88.6704V81.7516H83.3457V88.9814H90.0494V92.5046H79.4638V67.8181H90.0414V71.3493H83.3378V78.2204H83.3457Z" fill="white"/>
<path d="M97.7415 92.5046H93.8596V67.8181H97.7415V78.4037H102.15V67.8181H106.103V92.5126H102.15V81.9269H97.7415V92.5046Z" fill="white"/>
<path d="M115.413 82.6683L114.218 84.9241V92.5046H110.336V67.8181H114.218V78.5791L119.295 67.8181H123.177L117.781 78.8262L123.177 92.5126H119.192L115.413 82.6683Z" fill="white"/>
<path d="M138.904 92.5046H134.99L134.321 88.0249H129.562L128.893 92.5046H125.329L129.283 67.8102H134.959L138.904 92.5046ZM130.048 84.677H133.787L131.922 72.1863L130.048 84.677Z" fill="white"/>
<path d="M39.8953 101.057L44.9968 96.9285L46.7106 99.0408L45.9852 99.6307L44.925 98.3154L40.5569 101.855L39.8953 101.057Z" fill="white"/>
<path d="M46.0729 100.707C46.8221 99.9735 47.6352 99.9416 48.3446 100.667C49.0541 101.384 49.0142 102.205 48.2649 102.939L45.8337 105.33C45.0844 106.063 44.2714 106.095 43.562 105.37C42.8525 104.645 42.8924 103.831 43.6417 103.098L46.0729 100.707ZM44.3192 103.879C43.9844 104.206 44.0004 104.477 44.2315 104.716C44.4627 104.947 44.7337 104.971 45.0685 104.645L47.5953 102.166C47.9301 101.839 47.9142 101.568 47.683 101.329C47.4519 101.097 47.1808 101.073 46.8461 101.4L44.3192 103.879Z" fill="white"/>
<path d="M51.278 105.561L50.728 106.215C50.0584 107.02 49.3012 107.131 48.512 106.47L48.1374 106.159L46.5591 108.048L45.77 107.386L49.9787 102.357L51.1425 103.329C51.9316 103.999 51.9555 104.756 51.278 105.561ZM50.17 103.744L48.7432 105.449L49.1178 105.76C49.3729 105.968 49.6041 105.968 49.899 105.609L50.5287 104.852C50.8316 104.493 50.7918 104.262 50.5367 104.055L50.17 103.744Z" fill="white"/>
<path d="M49.1337 110.113L52.8323 104.692L53.6852 105.274L52.2983 107.315L52.7048 107.586C53.5577 108.168 53.6533 108.925 53.0635 109.794L52.5852 110.495C51.9954 111.364 51.254 111.547 50.4011 110.973L49.1337 110.113ZM50.9113 110.192C51.1823 110.376 51.4135 110.352 51.6765 109.969L52.2345 109.156C52.4975 108.765 52.4338 108.542 52.1627 108.359L51.7562 108.088L50.5048 109.921L50.9113 110.192Z" fill="white"/>
<path d="M55.2874 110.902L54.7215 111.276L53.765 113.046L52.8563 112.552L55.9809 106.789L56.8896 107.283L55.5266 109.794L58.0773 107.929L58.986 108.423L56.3317 110.312L55.8614 114.194L54.9287 113.692L55.2874 110.902Z" fill="white"/>
<path d="M58.8346 110.073C59.2411 109.1 59.9824 108.758 60.915 109.148C61.8476 109.539 62.1346 110.304 61.7281 111.276L60.4208 114.425C60.0143 115.397 59.273 115.74 58.3404 115.35C57.4077 114.959 57.1208 114.194 57.5273 113.221L58.8346 110.073ZM58.452 113.684C58.2686 114.114 58.3962 114.361 58.6991 114.489C59.002 114.616 59.265 114.529 59.4404 114.098L60.8034 110.822C60.9868 110.392 60.8592 110.145 60.5563 110.017C60.2534 109.889 59.9904 109.977 59.815 110.408L58.452 113.684Z" fill="white"/>
<path d="M61.1701 116.362L63.0832 110.089L65.6817 110.886L65.4107 111.779L63.8006 111.284L62.1585 116.665L61.1701 116.362Z" fill="white"/>
<path d="M66.1042 112.623C66.3115 111.595 66.9731 111.117 67.9615 111.316C68.9499 111.515 69.3803 112.209 69.1731 113.245L68.5035 116.585C68.2963 117.613 67.6347 118.092 66.6463 117.892C65.6578 117.693 65.2274 117 65.4347 115.963L66.1042 112.623ZM66.431 116.234C66.3354 116.697 66.5028 116.912 66.8296 116.976C67.1484 117.039 67.3876 116.904 67.4832 116.45L68.1847 112.982C68.2803 112.52 68.1129 112.305 67.7861 112.241C67.4673 112.177 67.2282 112.313 67.1325 112.767L66.431 116.234Z" fill="white"/>
<path d="M74.7289 117.079C74.6731 118.187 74.1311 118.753 73.063 118.698C72.0506 118.642 71.5564 118.02 71.6122 116.968L71.6202 116.8L72.5927 116.856L72.5767 117.087C72.5528 117.558 72.7521 117.749 73.0789 117.765C73.4456 117.781 73.6608 117.621 73.6927 116.992L73.7565 115.796C73.5572 116.163 73.2304 116.346 72.768 116.322C72.0108 116.282 71.6521 115.724 71.7079 114.76L71.7716 113.564C71.8274 112.512 72.4093 111.946 73.4217 112.002C74.434 112.058 74.9521 112.687 74.8963 113.732L74.7289 117.079ZM73.8202 114.792L73.884 113.612C73.9079 113.142 73.7086 112.966 73.3818 112.95C73.055 112.934 72.8398 113.094 72.8159 113.556L72.7521 114.736C72.7282 115.206 72.9275 115.39 73.2543 115.413C73.5811 115.421 73.7963 115.254 73.8202 114.792Z" fill="white"/>
<path d="M78.8181 112.026L78.858 112.926L77.5906 118.65L76.5623 118.697L77.8217 113.014L75.7732 113.102L75.7253 112.161L78.8181 112.026Z" fill="white"/>
<path d="M83.5609 111.3L84.4377 111.133L83.1225 118.06L82.2457 118.227L83.5609 111.3Z" fill="white"/>
<path d="M90.2327 114.21L89.3001 109.594L90.6472 109.1L92.8951 115.262L91.9784 115.597L90.3682 111.181L91.3088 115.844L90.3921 116.179L88.0805 112.081L89.6668 116.442L88.8218 116.752L86.574 110.591L87.9211 110.097L90.2327 114.21Z" fill="white"/>
<path d="M95.3023 114.114L94.3617 114.592L91.3885 108.742L92.2095 108.327L94.0907 112.026L93.7718 110.567L93.3016 107.769L94.3139 107.259L97.2871 113.11L96.4581 113.532L94.3697 109.411L94.7204 111.037L95.3023 114.114Z" fill="white"/>
<path d="M98.4908 106.534L98.9531 107.251C99.519 108.136 99.4074 108.885 98.5386 109.443L98.1321 109.706L99.4632 111.779L98.5944 112.337L95.0472 106.821L96.3226 106C97.1915 105.442 97.9248 105.649 98.4908 106.534ZM96.4183 107.052L97.6219 108.917L98.0284 108.654C98.3074 108.479 98.3712 108.255 98.1161 107.857L97.582 107.028C97.327 106.637 97.0958 106.605 96.8248 106.781L96.4183 107.052Z" fill="white"/>
<path d="M104.788 107.881L103.975 108.526L103.098 107.705L102.11 108.495L102.707 109.539L101.966 110.129L98.706 104.342L99.8857 103.401L104.788 107.881ZM101.655 107.713L102.428 107.1L99.9814 104.812L101.655 107.713Z" fill="white"/>
<path d="M105.457 104.366L103.513 99.9575L104.286 99.1365L107.522 102.173L107.857 101.815L108.542 102.46L108.207 102.819L109.076 103.632L108.383 104.373L107.514 103.56L106.151 105.011L105.457 104.366ZM106.821 102.915L105.027 101.225L106.111 103.672L106.821 102.915Z" fill="white"/>
<path d="M106.597 97.6458C106.398 97.9089 106.414 98.1799 106.789 98.4669L107.347 98.8973L106.757 99.6705L106.255 99.2799C105.418 98.6422 105.266 97.8611 105.88 97.056C106.494 96.2509 107.291 96.2031 108.128 96.8408C109.762 98.1002 109.124 100.197 109.985 100.85C110.025 100.882 110.057 100.906 110.105 100.93L111.292 99.3835L112.034 99.9575L110.216 102.325L109.579 101.831C108.048 100.659 109.037 98.8415 107.53 97.6857C107.052 97.319 106.797 97.3828 106.597 97.6458Z" fill="white"/>
</svg>
