<svg width="64" height="108" viewBox="0 0 64 108" fill="none" xmlns="http://www.w3.org/2000/svg">
<g clip-path="url(#clip0)">
<path fill-rule="evenodd" clip-rule="evenodd" d="M60 76C60 68.5739 57.05 61.452 51.799 56.201C46.548 50.95 39.4261 48 32 48C24.5739 48 17.452 50.95 12.201 56.201C6.94999 61.452 4 68.5739 4 76C4 83.4261 6.94999 90.548 12.201 95.799C17.452 101.05 24.5739 104 32 104C39.4261 104 46.548 101.05 51.799 95.799C57.05 90.548 60 83.4261 60 76ZM0 76C0 67.5131 3.37142 59.3737 9.37258 53.3726C15.3737 47.3714 23.5131 44 32 44C40.4869 44 48.6263 47.3714 54.6274 53.3726C60.6286 59.3737 64 67.5131 64 76C64 84.4869 60.6286 92.6263 54.6274 98.6274C48.6263 104.629 40.4869 108 32 108C23.5131 108 15.3737 104.629 9.37258 98.6274C3.37142 92.6263 0 84.4869 0 76ZM30 62C30 61.4696 30.2107 60.9609 30.5858 60.5858C30.9609 60.2107 31.4696 60 32 60C32.5304 60 33.0391 60.2107 33.4142 60.5858C33.7893 60.9609 34 61.4696 34 62L34 85.172L42.584 76.584C42.9595 76.2085 43.4689 75.9975 44 75.9975C44.5311 75.9975 45.0405 76.2085 45.416 76.584C45.7915 76.9595 46.0025 77.4689 46.0025 78C46.0025 78.5311 45.7915 79.0405 45.416 79.416L33.416 91.416C33.2302 91.6023 33.0095 91.75 32.7665 91.8509C32.5236 91.9517 32.2631 92.0036 32 92.0036C31.7369 92.0036 31.4764 91.9517 31.2335 91.8509C30.9905 91.75 30.7698 91.6023 30.584 91.416L18.584 79.416C18.2085 79.0405 17.9975 78.5311 17.9975 78C17.9975 77.4689 18.2085 76.9595 18.584 76.584C18.9595 76.2085 19.4689 75.9975 20 75.9975C20.5311 75.9975 21.0405 76.2085 21.416 76.584L30 85.172L30 62Z" fill="black"/>
</g>
<line x1="32" y1="19" x2="32" y2="50" stroke="url(#paint0_linear)" stroke-width="4" stroke-linecap="round"/>
<line x1="32" y1="2" x2="32" y2="10" stroke="url(#paint1_linear)" stroke-width="4" stroke-linecap="round"/>
<defs>
<linearGradient id="paint0_linear" x1="30" y1="34.5" x2="29" y2="34.5" gradientUnits="userSpaceOnUse">
<stop stop-color="#DD6E88"/>
<stop offset="1" stop-color="#E88B6A"/>
</linearGradient>
<linearGradient id="paint1_linear" x1="30" y1="6" x2="29" y2="6" gradientUnits="userSpaceOnUse">
<stop stop-color="#DD6E88"/>
<stop offset="1" stop-color="#E88B6A"/>
</linearGradient>
<clipPath id="clip0">
<rect width="64" height="64" fill="white" transform="translate(64 108) rotate(-180)"/>
</clipPath>
</defs>
</svg>
