<svg width="621" height="152" viewBox="0 0 621 152" fill="none" xmlns="http://www.w3.org/2000/svg">
<path d="M324.313 144.166L324.32 144.17C332.195 148.731 341.168 151 351.212 151C357.12 151 362.954 150.195 368.711 148.587L368.719 148.585L368.727 148.583C374.618 146.833 379.659 144.563 383.831 141.759L383.834 141.757C386.624 139.867 388.637 138.129 389.761 136.538L389.774 136.52L389.786 136.502C390.906 134.758 391.471 132.842 391.471 130.778C391.471 128.569 390.831 126.671 389.492 125.167C388.294 123.655 386.706 122.866 384.8 122.866C383.564 122.866 382.168 123.298 380.649 124.05C379.16 124.787 377.603 125.669 375.979 126.692L375.966 126.7L375.954 126.708C372.371 129.121 368.799 131.029 365.239 132.44L365.232 132.442L365.226 132.445C361.888 133.822 357.808 134.529 352.957 134.529C342.583 134.529 334.593 131.165 328.854 124.514C323.243 117.843 320.368 108.315 320.368 95.7885C320.368 83.2611 323.244 73.6534 328.864 66.8354C334.608 59.899 342.595 56.3997 352.957 56.3997C357.81 56.3997 361.81 57.1075 364.993 58.478L365 58.481L365.007 58.4839C368.431 59.8966 372.012 61.8098 375.751 64.2305L375.799 64.2617L375.85 64.2872C376.032 64.3772 376.462 64.67 377.2 65.2548L377.234 65.2817L377.27 65.3055C378.184 65.9089 379.239 66.5049 380.431 67.095C381.695 67.721 382.938 68.0628 384.146 68.0628C386.166 68.0628 387.838 67.2985 389.056 65.7625C390.395 64.2584 391.035 62.3604 391.035 60.1513C391.035 57.9456 390.399 55.951 389.126 54.2006C387.997 52.3071 386.054 50.4955 383.402 48.7424C379.225 45.7911 374.323 43.5894 368.71 42.125C363.244 40.5175 357.702 39.7129 352.084 39.7129C341.893 39.7129 332.841 42.0551 324.962 46.766C317.089 51.4732 310.93 58.0932 306.486 66.5998L306.486 66.5998L306.48 66.6121C302.183 75.1233 300.048 84.857 300.048 95.7885C300.048 106.714 302.108 116.375 306.259 124.743L306.259 124.743L306.265 124.755C310.564 133.122 316.581 139.601 324.313 144.166ZM465.68 145.896L465.688 145.891L465.696 145.886C470.359 143.045 474.071 139.301 476.826 134.67V140.929C476.826 143.744 477.703 146.102 479.521 147.903C481.339 149.702 483.716 150.568 486.55 150.568C489.373 150.568 491.695 149.708 493.377 147.886C495.184 146.088 496.056 143.735 496.056 140.929V82.1816C496.056 68.2139 492.696 57.5528 485.798 50.3866C478.894 43.2133 468.611 39.7129 455.143 39.7129C448.657 39.7129 442.103 40.5886 435.483 42.3359C429.011 43.9388 423.184 46.2012 418.009 49.1298L418.004 49.1326C415.188 50.747 413.039 52.4017 411.623 54.1148L411.623 54.1148L411.616 54.1233C410.296 55.7574 409.649 57.7126 409.649 59.9353C409.649 62.1564 410.296 64.0629 411.65 65.5709C413.003 67.0786 414.728 67.8468 416.756 67.8468C417.77 67.8468 419.017 67.4702 420.433 66.8432C421.865 66.2085 423.571 65.271 425.541 64.0437C435.588 58.7905 445.452 56.1837 455.143 56.1837C462.997 56.1837 468.396 58.1643 471.617 61.8857L471.624 61.8934L471.63 61.9009C475.026 65.6667 476.826 71.7068 476.826 80.2377V86.3652H473.028C456.429 86.3652 443.408 87.3731 434 89.41C424.604 91.301 417.68 94.5291 413.406 99.2123C409.111 103.772 407.032 110.167 407.032 118.251C407.032 124.356 408.765 129.952 412.223 135.013C415.672 140.063 420.318 143.99 426.136 146.797L426.145 146.801C432.103 149.604 438.575 151 445.546 151C453.116 151 459.837 149.308 465.68 145.896ZM468.599 126.845L468.598 126.846C463.28 132.389 456.425 135.177 447.945 135.177C441.906 135.177 436.915 133.446 432.905 130.029C429.052 126.48 427.135 122.073 427.135 116.739C427.135 112.031 428.458 108.673 430.942 106.472L430.944 106.47C433.636 104.072 438.202 102.311 444.823 101.313L444.833 101.311L444.843 101.31C451.447 100.172 461.121 99.5963 473.9 99.5963H476.826V104.86C476.826 113.852 474.067 121.152 468.599 126.845ZM603.029 148.119L603.046 148.136L603.064 148.152C604.894 149.799 607.338 150.568 610.276 150.568C613.207 150.568 615.605 149.802 617.305 148.119C619.133 146.308 620 143.87 620 140.929V82.3976C620 68.3693 616.791 57.6615 610.195 50.4587C603.585 43.2393 593.732 39.7129 580.831 39.7129C572.689 39.7129 565.397 41.4727 558.981 45.0168C553.608 47.8648 549.227 51.8524 545.844 56.963V49.5682C545.844 46.8875 544.961 44.6132 543.165 42.8267C541.483 41.0048 539.16 40.1449 536.338 40.1449C533.375 40.1449 530.919 41.0004 529.091 42.8101C527.273 44.6106 526.396 46.9693 526.396 49.7842V140.929C526.396 143.87 527.262 146.308 529.091 148.119L529.108 148.136L529.126 148.152C530.956 149.799 533.4 150.568 536.338 150.568C539.269 150.568 541.667 149.802 543.367 148.119C545.195 146.308 546.062 143.87 546.062 140.929V88.2291C546.062 78.3522 548.905 70.6342 554.499 64.9568C560.094 59.2774 567.599 56.3997 577.124 56.3997C585.397 56.3997 591.163 58.5874 594.682 62.7415L594.688 62.7486L594.694 62.7556C598.383 66.9504 600.333 73.7825 600.333 83.4775V140.929C600.333 143.87 601.2 146.308 603.029 148.119Z" stroke="#F8FAFF" stroke-width="2"/>
<path d="M155.291 46.7603C156.745 43.3045 159.145 41.5767 162.489 41.5767C164.67 41.5767 166.633 42.2966 168.378 43.7365C170.123 45.1764 170.995 46.9762 170.995 49.1361C170.995 50.144 170.777 51.2239 170.341 52.3758L134.135 143.089C133.263 144.96 131.954 146.472 130.209 147.624C128.61 148.632 126.792 149.136 124.757 149.136C122.866 149.136 121.049 148.632 119.304 147.624C117.705 146.472 116.469 144.96 115.596 143.089L85.4975 67.2786L55.617 143.089C54.89 144.96 53.6541 146.472 51.9092 147.624C50.1644 148.632 48.2741 149.136 46.2385 149.136C44.3482 149.136 42.5307 148.632 40.7858 147.624C39.041 146.472 37.7323 144.96 36.8599 143.089L0.654318 52.5918C0.218106 51.4399 0 50.432 0 49.568C0 47.2642 0.945126 45.3204 2.83538 43.7365C4.87103 42.1526 7.05209 41.3607 9.37856 41.3607C12.8683 41.3607 15.3401 43.0885 16.7942 46.5443L46.6747 126.242L77.4276 47.1922C78.3 45.3204 79.4633 43.8805 80.9173 42.8726C82.5167 41.8646 84.1889 41.3607 85.9337 41.3607C87.824 41.3607 89.4961 41.8646 90.9502 42.8726C92.5496 43.8805 93.7128 45.3204 94.4399 47.1922L125.193 126.026L155.291 46.7603Z" fill="white"/>
<path d="M274.582 124.082C276.181 124.082 277.563 124.73 278.726 126.026C279.889 127.322 280.471 128.978 280.471 130.994C280.471 134.593 277.926 137.905 272.837 140.929C267.602 143.952 262.077 146.256 256.261 147.84C250.445 149.28 244.774 150 239.249 150C222.818 150 209.804 145.176 200.208 135.529C190.756 125.882 186.031 112.563 186.031 95.5724C186.031 84.7732 188.139 75.27 192.356 67.0626C196.573 58.7113 202.461 52.2318 210.022 47.6242C217.729 43.0166 226.453 40.7127 236.195 40.7127C250.008 40.7127 260.986 45.1764 269.129 54.1037C277.272 63.0309 281.343 75.126 281.343 90.3888C281.343 93.2685 280.761 95.3564 279.598 96.6523C278.435 97.9482 276.545 98.5961 273.927 98.5961H203.697C205.006 123.362 216.856 135.745 239.249 135.745C244.919 135.745 249.79 135.025 253.862 133.585C257.933 132.001 262.295 129.914 266.948 127.322C270.729 125.162 273.273 124.082 274.582 124.082ZM236.413 54.3196C227.107 54.3196 219.619 57.1994 213.948 62.959C208.423 68.7185 205.151 76.8538 204.134 87.365H265.858C265.567 76.7099 262.877 68.5745 257.788 62.959C252.698 57.1994 245.574 54.3196 236.413 54.3196Z" fill="white"/>
<path d="M61.833 13.4989C61.833 20.9542 55.73 26.9978 48.2014 26.9978C40.6729 26.9978 34.5698 20.9542 34.5698 13.4989C34.5698 6.04367 40.6729 0 48.2014 0C55.73 0 61.833 6.04367 61.833 13.4989Z" fill="white"/>
<path d="M140.896 13.4989C140.896 20.9542 134.793 26.9978 127.265 26.9978C119.736 26.9978 113.633 20.9542 113.633 13.4989C113.633 6.04367 119.736 0 127.265 0C134.793 0 140.896 6.04367 140.896 13.4989Z" fill="white"/>
</svg>
