<svg width="64" height="55" viewBox="0 0 64 55" fill="none" xmlns="http://www.w3.org/2000/svg">
<path d="M58.1225 17.2448C58.6667 15.9703 59.5646 15.3331 60.8163 15.3331C61.6327 15.3331 62.3674 15.5986 63.0204 16.1296C63.6735 16.6606 64 17.3244 64 18.1209C64 18.4926 63.9184 18.8909 63.7551 19.3157L50.2041 52.7697C49.8776 53.4601 49.3878 54.0176 48.7347 54.4424C48.1361 54.8141 47.4558 55 46.6939 55C45.9864 55 45.3061 54.8141 44.6531 54.4424C44.0544 54.0176 43.5918 53.4601 43.2653 52.7697L32 24.8117L20.8163 52.7697C20.5442 53.4601 20.0816 54.0176 19.4286 54.4424C18.7755 54.8141 18.068 55 17.3061 55C16.5986 55 15.9184 54.8141 15.2653 54.4424C14.6122 54.0176 14.1225 53.4601 13.7959 52.7697L0.244898 19.3954C0.0816326 18.9706 0 18.5988 0 18.2802C0 17.4306 0.353742 16.7137 1.06122 16.1296C1.82313 15.5455 2.63946 15.2534 3.5102 15.2534C4.81633 15.2534 5.7415 15.8907 6.28571 17.1651L17.4694 46.5568L28.9796 17.4041C29.3061 16.7137 29.7415 16.1827 30.2857 15.811C30.8844 15.4393 31.5102 15.2534 32.1633 15.2534C32.8708 15.2534 33.4966 15.4393 34.0408 15.811C34.6395 16.1827 35.0748 16.7137 35.3469 17.4041L46.8571 46.4772L58.1225 17.2448Z" fill="#F8FAFF"/>
<path d="M23.1429 4.97828C23.1429 7.7277 20.8586 9.95655 18.0408 9.95655C15.223 9.95655 12.9388 7.7277 12.9388 4.97828C12.9388 2.22885 15.223 0 18.0408 0C20.8586 0 23.1429 2.22885 23.1429 4.97828Z" fill="#F8FAFF"/>
<path d="M52.7347 4.97828C52.7347 7.7277 50.4504 9.95655 47.6327 9.95655C44.8149 9.95655 42.5306 7.7277 42.5306 4.97828C42.5306 2.22885 44.8149 0 47.6327 0C50.4504 0 52.7347 2.22885 52.7347 4.97828Z" fill="#F8FAFF"/>
</svg>
