<svg width="94" height="58" viewBox="0 0 94 58" fill="none" xmlns="http://www.w3.org/2000/svg">
<mask id="path-1-inside-1" fill="white">
<path d="M90.0761 21.4717C90.3626 21.4717 90.6334 21.4895 90.9463 21.5084C91.222 21.5265 91.4985 21.4873 91.7583 21.3933C92.0182 21.2992 92.2557 21.1524 92.456 20.962C92.6565 20.7725 92.8163 20.5441 92.9256 20.2907C93.0348 20.0374 93.0913 19.7644 93.0914 19.4885V8.0949C93.0891 5.94871 92.2355 3.89108 90.7179 2.37349C89.2003 0.855898 87.1427 0.00230345 84.9965 0H8.09491C5.94876 0.00246382 3.89122 0.85611 2.37366 2.37367C0.856108 3.89122 0.00246382 5.94876 0 8.0949V19.4885C0.00415173 19.7658 0.0647352 20.0393 0.178056 20.2924C0.291376 20.5456 0.455059 20.773 0.659127 20.9607C0.864736 21.1501 1.10647 21.2959 1.36983 21.3895C1.63319 21.483 1.91273 21.5225 2.1917 21.5053C2.46045 21.4895 2.7292 21.4717 3.01576 21.4717C4.9823 21.4835 6.86671 22.2618 8.26839 23.6412C9.67007 25.0205 10.4785 26.8922 10.5218 28.8583C10.4715 30.5622 9.87372 32.2045 8.81693 33.5419C7.76014 34.8793 6.30059 35.8407 4.65457 36.2836C3.84177 36.5209 2.98943 36.5918 2.14859 36.492C1.87264 36.4736 1.59587 36.5126 1.3358 36.6067C1.07572 36.7007 0.837997 36.8478 0.637676 37.0384C0.436471 37.2274 0.276096 37.4557 0.166428 37.709C0.0567591 37.9623 0.000120001 38.2355 0 38.5115V49.9051C0.00246382 52.0512 0.856108 54.1088 2.37366 55.6263C3.89122 57.1439 5.94876 57.9975 8.09491 58H84.9965C87.1427 57.9977 89.2003 57.1441 90.7179 55.6265C92.2355 54.1089 93.0891 52.0513 93.0914 49.9051V38.5115C93.0902 38.235 93.0326 37.9617 92.9221 37.7082C92.8117 37.4547 92.6507 37.2264 92.4491 37.0372C92.2486 36.8448 92.0098 36.6968 91.7483 36.603C91.4868 36.5091 91.2084 36.4715 90.9313 36.4926C90.0942 36.5906 89.246 36.5195 88.4369 36.2836C86.7908 35.8407 85.3313 34.8793 84.2745 33.5419C83.2177 32.2045 82.6199 30.5622 82.5697 28.8583C82.6124 26.892 83.4207 25.0199 84.8226 23.6404C86.2244 22.2609 88.1093 21.4828 90.0761 21.4717ZM78.5226 28.7831C78.541 31.3789 79.4091 33.8973 80.994 35.9531C82.579 38.009 84.7936 39.4892 87.2993 40.1675C87.8691 40.3372 88.453 40.4554 89.044 40.5209V49.9051C89.0427 50.9782 88.6159 52.0069 87.8571 52.7657C87.0984 53.5245 86.0696 53.9513 84.9965 53.9525H26.5209V51.7046C26.5209 51.1679 26.3077 50.6531 25.9282 50.2736C25.5487 49.8941 25.0339 49.6809 24.4972 49.6809C23.9605 49.6809 23.4457 49.8941 23.0662 50.2736C22.6867 50.6531 22.4735 51.1679 22.4735 51.7046V53.9525H8.09491C7.02178 53.9515 5.99292 53.5247 5.23411 52.7659C4.4753 52.0071 4.04852 50.9782 4.04745 49.9051V40.5209C4.63854 40.4553 5.22256 40.3369 5.79251 40.1671C8.29823 39.4888 10.5129 38.0086 12.0978 35.9527C13.6828 33.8969 14.5508 31.3785 14.5692 28.7826C14.5039 25.9361 13.3968 23.2123 11.4576 21.1274C9.51842 19.0425 6.88186 17.7412 4.04745 17.4702V8.0949C4.04852 7.02178 4.4753 5.99292 5.23411 5.23411C5.99292 4.47529 7.02178 4.04852 8.09491 4.04745H22.4735V6.29561C22.4735 6.83233 22.6867 7.34708 23.0662 7.7266C23.4457 8.10612 23.9605 8.31933 24.4972 8.31933C25.0339 8.31933 25.5487 8.10612 25.9282 7.7266C26.3077 7.34708 26.5209 6.83233 26.5209 6.29561V4.04745H84.9965C86.0696 4.04868 87.0984 4.47551 87.8571 5.23428C88.6159 5.99306 89.0427 7.02183 89.044 8.0949V17.4704C86.2094 17.7411 83.5727 19.0422 81.6335 21.1271C79.6942 23.2121 78.5876 25.9364 78.5226 28.7831ZM26.5209 39.7367V42.1991C26.5209 42.7359 26.3077 43.2506 25.9282 43.6301C25.5487 44.0097 25.0339 44.2229 24.4972 44.2229C23.9605 44.2229 23.4457 44.0097 23.0662 43.6301C22.6867 43.2506 22.4735 42.7359 22.4735 42.1991V39.7367C22.4735 39.2 22.6867 38.6852 23.0662 38.3057C23.4457 37.9262 23.9605 37.7129 24.4972 37.7129C25.0339 37.7129 25.5487 37.9262 25.9282 38.3057C26.3077 38.6852 26.5209 39.2 26.5209 39.7367ZM26.5209 27.7688V30.2312C26.5209 30.768 26.3077 31.2827 25.9282 31.6622C25.5487 32.0417 25.0339 32.255 24.4972 32.255C23.9605 32.255 23.4457 32.0417 23.0662 31.6622C22.6867 31.2827 22.4735 30.768 22.4735 30.2312V27.7688C22.4735 27.232 22.6867 26.7173 23.0662 26.3378C23.4457 25.9583 23.9605 25.745 24.4972 25.745C25.0339 25.745 25.5487 25.9583 25.9282 26.3378C26.3077 26.7173 26.5209 27.232 26.5209 27.7688ZM26.5209 15.8008V18.2633C26.5209 18.8 26.3077 19.3148 25.9282 19.6943C25.5487 20.0738 25.0339 20.287 24.4972 20.287C23.9605 20.287 23.4457 20.0738 23.0662 19.6943C22.6867 19.3148 22.4735 18.8 22.4735 18.2633V15.8008C22.4735 15.2641 22.6867 14.7494 23.0662 14.3699C23.4457 13.9903 23.9605 13.7771 24.4972 13.7771C25.0339 13.7771 25.5487 13.9903 25.9282 14.3699C26.3077 14.7494 26.5209 15.2641 26.5209 15.8008Z"/>
</mask>
<path d="M90.0761 21.4717C90.3626 21.4717 90.6334 21.4895 90.9463 21.5084C91.222 21.5265 91.4985 21.4873 91.7583 21.3933C92.0182 21.2992 92.2557 21.1524 92.456 20.962C92.6565 20.7725 92.8163 20.5441 92.9256 20.2907C93.0348 20.0374 93.0913 19.7644 93.0914 19.4885V8.0949C93.0891 5.94871 92.2355 3.89108 90.7179 2.37349C89.2003 0.855898 87.1427 0.00230345 84.9965 0H8.09491C5.94876 0.00246382 3.89122 0.85611 2.37366 2.37367C0.856108 3.89122 0.00246382 5.94876 0 8.0949V19.4885C0.00415173 19.7658 0.0647352 20.0393 0.178056 20.2924C0.291376 20.5456 0.455059 20.773 0.659127 20.9607C0.864736 21.1501 1.10647 21.2959 1.36983 21.3895C1.63319 21.483 1.91273 21.5225 2.1917 21.5053C2.46045 21.4895 2.7292 21.4717 3.01576 21.4717C4.9823 21.4835 6.86671 22.2618 8.26839 23.6412C9.67007 25.0205 10.4785 26.8922 10.5218 28.8583C10.4715 30.5622 9.87372 32.2045 8.81693 33.5419C7.76014 34.8793 6.30059 35.8407 4.65457 36.2836C3.84177 36.5209 2.98943 36.5918 2.14859 36.492C1.87264 36.4736 1.59587 36.5126 1.3358 36.6067C1.07572 36.7007 0.837997 36.8478 0.637676 37.0384C0.436471 37.2274 0.276096 37.4557 0.166428 37.709C0.0567591 37.9623 0.000120001 38.2355 0 38.5115V49.9051C0.00246382 52.0512 0.856108 54.1088 2.37366 55.6263C3.89122 57.1439 5.94876 57.9975 8.09491 58H84.9965C87.1427 57.9977 89.2003 57.1441 90.7179 55.6265C92.2355 54.1089 93.0891 52.0513 93.0914 49.9051V38.5115C93.0902 38.235 93.0326 37.9617 92.9221 37.7082C92.8117 37.4547 92.6507 37.2264 92.4491 37.0372C92.2486 36.8448 92.0098 36.6968 91.7483 36.603C91.4868 36.5091 91.2084 36.4715 90.9313 36.4926C90.0942 36.5906 89.246 36.5195 88.4369 36.2836C86.7908 35.8407 85.3313 34.8793 84.2745 33.5419C83.2177 32.2045 82.6199 30.5622 82.5697 28.8583C82.6124 26.892 83.4207 25.0199 84.8226 23.6404C86.2244 22.2609 88.1093 21.4828 90.0761 21.4717ZM78.5226 28.7831C78.541 31.3789 79.4091 33.8973 80.994 35.9531C82.579 38.009 84.7936 39.4892 87.2993 40.1675C87.8691 40.3372 88.453 40.4554 89.044 40.5209V49.9051C89.0427 50.9782 88.6159 52.0069 87.8571 52.7657C87.0984 53.5245 86.0696 53.9513 84.9965 53.9525H26.5209V51.7046C26.5209 51.1679 26.3077 50.6531 25.9282 50.2736C25.5487 49.8941 25.0339 49.6809 24.4972 49.6809C23.9605 49.6809 23.4457 49.8941 23.0662 50.2736C22.6867 50.6531 22.4735 51.1679 22.4735 51.7046V53.9525H8.09491C7.02178 53.9515 5.99292 53.5247 5.23411 52.7659C4.4753 52.0071 4.04852 50.9782 4.04745 49.9051V40.5209C4.63854 40.4553 5.22256 40.3369 5.79251 40.1671C8.29823 39.4888 10.5129 38.0086 12.0978 35.9527C13.6828 33.8969 14.5508 31.3785 14.5692 28.7826C14.5039 25.9361 13.3968 23.2123 11.4576 21.1274C9.51842 19.0425 6.88186 17.7412 4.04745 17.4702V8.0949C4.04852 7.02178 4.4753 5.99292 5.23411 5.23411C5.99292 4.47529 7.02178 4.04852 8.09491 4.04745H22.4735V6.29561C22.4735 6.83233 22.6867 7.34708 23.0662 7.7266C23.4457 8.10612 23.9605 8.31933 24.4972 8.31933C25.0339 8.31933 25.5487 8.10612 25.9282 7.7266C26.3077 7.34708 26.5209 6.83233 26.5209 6.29561V4.04745H84.9965C86.0696 4.04868 87.0984 4.47551 87.8571 5.23428C88.6159 5.99306 89.0427 7.02183 89.044 8.0949V17.4704C86.2094 17.7411 83.5727 19.0422 81.6335 21.1271C79.6942 23.2121 78.5876 25.9364 78.5226 28.7831ZM26.5209 39.7367V42.1991C26.5209 42.7359 26.3077 43.2506 25.9282 43.6301C25.5487 44.0097 25.0339 44.2229 24.4972 44.2229C23.9605 44.2229 23.4457 44.0097 23.0662 43.6301C22.6867 43.2506 22.4735 42.7359 22.4735 42.1991V39.7367C22.4735 39.2 22.6867 38.6852 23.0662 38.3057C23.4457 37.9262 23.9605 37.7129 24.4972 37.7129C25.0339 37.7129 25.5487 37.9262 25.9282 38.3057C26.3077 38.6852 26.5209 39.2 26.5209 39.7367ZM26.5209 27.7688V30.2312C26.5209 30.768 26.3077 31.2827 25.9282 31.6622C25.5487 32.0417 25.0339 32.255 24.4972 32.255C23.9605 32.255 23.4457 32.0417 23.0662 31.6622C22.6867 31.2827 22.4735 30.768 22.4735 30.2312V27.7688C22.4735 27.232 22.6867 26.7173 23.0662 26.3378C23.4457 25.9583 23.9605 25.745 24.4972 25.745C25.0339 25.745 25.5487 25.9583 25.9282 26.3378C26.3077 26.7173 26.5209 27.232 26.5209 27.7688ZM26.5209 15.8008V18.2633C26.5209 18.8 26.3077 19.3148 25.9282 19.6943C25.5487 20.0738 25.0339 20.287 24.4972 20.287C23.9605 20.287 23.4457 20.0738 23.0662 19.6943C22.6867 19.3148 22.4735 18.8 22.4735 18.2633V15.8008C22.4735 15.2641 22.6867 14.7494 23.0662 14.3699C23.4457 13.9903 23.9605 13.7771 24.4972 13.7771C25.0339 13.7771 25.5487 13.9903 25.9282 14.3699C26.3077 14.7494 26.5209 15.2641 26.5209 15.8008Z" fill="black" stroke="white" mask="url(#path-1-inside-1)"/>
<path d="M50.1888 11.5999H47.4366V12.9629H50.1888V11.5999Z" fill="black"/>
<path d="M52.941 11.5999H54.3171V12.9629H57.0693V14.3259H52.941V11.5999Z" fill="black"/>
<path d="M58.4455 11.5999H59.8216V26.593H58.4455V23.867H57.0694V25.23H55.6927V23.867H54.3172V22.504H52.9411V18.4149H51.5649V15.6889H47.4366V14.3259H50.1888V12.9629H51.5649V14.3259H52.9411V15.6889H57.0694V17.0519H54.3172V21.141H55.6927V19.7779H57.0694V22.504H58.4455V18.4149H57.0694V17.0519H58.4455V11.5999Z" fill="black"/>
<path d="M36.4277 11.5999V21.1409H46.0605V11.5999H36.4277ZM44.6844 19.7779H37.8039V12.9629H44.6844V19.7779Z" fill="black"/>
<path d="M61.1975 11.5999V21.141H70.8303V11.5999H61.1975ZM69.4542 19.7779H62.5736V12.9629H69.4542V19.7779Z" fill="black"/>
<path d="M43.3079 14.326H39.1795V18.415H43.3079V14.326Z" fill="black"/>
<path d="M68.0783 14.326H63.9499V18.415H68.0783V14.326Z" fill="black"/>
<path d="M47.4366 17.052H50.1888V19.778H48.8127V18.415H47.4366V17.052Z" fill="black"/>
<path d="M47.4366 19.778H48.8127V21.1411H50.1888V19.778H51.5649V22.5041H52.9411V23.8671H54.3172V25.2301H52.9411V26.5931H51.5649V23.8671H50.1888V22.5041H47.4366V19.778Z" fill="black"/>
<path d="M46.0603 22.5039H43.3081V23.8669H46.0603V22.5039Z" fill="black"/>
<path d="M65.326 22.5039H63.9499V23.8669H65.326V22.5039Z" fill="black"/>
<path d="M66.7021 22.5039H68.0782V25.2299H70.8304V29.3189H68.0782V26.5929H66.7021V22.5039Z" fill="black"/>
<path d="M70.8307 22.5039H69.4546V23.8669H70.8307V22.5039Z" fill="black"/>
<path d="M40.5559 23.867H37.8037V25.23H40.5559V23.867Z" fill="black"/>
<path d="M43.3081 23.867H41.932V25.23H43.3081V23.867Z" fill="black"/>
<path d="M37.8037 25.2299H36.4276V26.5929H37.8037V25.2299Z" fill="black"/>
<path d="M46.0608 25.2299H44.6847V26.5929H46.0608V25.2299Z" fill="black"/>
<path d="M39.1798 26.5929H41.9321V29.3189H40.5559V30.6819H39.1798V29.3189H37.8037V27.9559H39.1798V26.5929Z" fill="black"/>
<path d="M44.6842 26.5929H43.3081V27.9559H44.6842V26.5929Z" fill="black"/>
<path d="M58.4456 26.5929H57.0695V27.9559H58.4456V26.5929Z" fill="black"/>
<path d="M46.0608 27.956H44.6847V29.319H46.0608V27.956Z" fill="black"/>
<path d="M37.8037 29.3189H36.4276V34.7709H37.8037V29.3189Z" fill="black"/>
<path d="M43.3081 29.3189H41.932V30.6824H43.3081V29.3189Z" fill="black"/>
<path d="M41.9323 30.6818H40.5562V32.0448H41.9323V30.6818Z" fill="black"/>
<path d="M46.0608 30.6818H44.6847V32.0448H46.0608V30.6818Z" fill="black"/>
<path d="M47.4366 30.6818H48.8127V32.0448H50.1888V34.7708H48.8127V36.1338H47.4366V30.6818Z" fill="black"/>
<path d="M65.3253 30.6818H62.5736V32.0448H65.3253V30.6818Z" fill="black"/>
<path d="M70.8307 30.6818H68.0785V32.0448H70.8307V30.6818Z" fill="black"/>
<path d="M43.3081 32.045H41.932V33.408H43.3081V32.045Z" fill="black"/>
<path d="M40.5556 33.4081H39.1795V34.7716H40.5556V33.4081Z" fill="black"/>
<path d="M46.0603 33.4081H43.3081V34.7716H46.0603V33.4081Z" fill="black"/>
<path d="M51.5646 34.771H50.1885V36.134H51.5646V34.771Z" fill="black"/>
<path d="M70.8305 34.7709V33.4079H68.0782V32.0449H65.326V33.4079H59.8216V32.0449H61.1977V30.6819H62.5738V29.3189H65.326V30.6819H66.7021V26.5929H65.326V25.2299H63.9499V26.5929H62.5738V25.2299H63.9499V23.8669H62.5738V22.5039H61.1977V26.5929H59.8216V30.6819H57.0694V27.9559H55.6927V30.6819H54.3166V26.5929H52.9405V29.3189H51.5644V26.5929H47.436V27.9559H48.8122V30.6819H50.1888V32.0449H51.5649V30.6819H52.941V32.0449H51.5649V34.7709H52.941V36.1339H54.3171V33.4079H55.6932V36.1339H57.0694V34.7709H58.4455V36.1339H57.0694V37.4969H55.6927V41.586H52.941V42.949H55.6927V44.312H52.941V45.675H59.8216V44.312H58.4455V42.949H57.0694V38.8599H58.4455V40.2229H59.8216V41.586H61.1977V40.2229H65.326V41.586H66.7021V40.2229H68.0782V38.8599H66.7021V36.1339H65.326V34.7709H70.8305ZM58.4455 33.4079H57.0694V32.0449H58.4455V33.4079ZM63.9499 38.8599H59.8216V34.7709H63.9499V38.8599Z" fill="black"/>
<path d="M52.9413 36.1339H51.5652V38.8599H52.9413V36.1339Z" fill="black"/>
<path d="M62.5741 36.1339H61.1975V37.4974H62.5741V36.1339Z" fill="black"/>
<path d="M70.8307 36.1339H69.4546V38.8599H70.8307V36.1339Z" fill="black"/>
<path d="M36.4276 36.1339V45.6749H46.0604V36.1339H36.4276ZM44.6843 44.3119H37.8037V37.4969H44.6843V44.3119Z" fill="black"/>
<path d="M47.4366 37.497H50.1888V40.223H51.5649V41.5861H50.1888V42.9491H48.8127V38.86H47.4366V37.497Z" fill="black"/>
<path d="M43.3079 38.86H39.1795V42.949H43.3079V38.86Z" fill="black"/>
<path d="M54.3171 38.86H52.941V40.223H54.3171V38.86Z" fill="black"/>
<path d="M70.8307 40.2231H69.4546V45.6751H70.8307V40.2231Z" fill="black"/>
<path d="M59.8222 41.5862H58.4456V42.9492H59.8222V41.5862Z" fill="black"/>
<path d="M61.1975 41.5862H63.9497V42.9492H66.7019V45.6752H65.3258V44.3122H62.5736V45.6752H61.1975V41.5862Z" fill="black"/>
<path d="M68.0782 41.5862H66.7021V42.9492H68.0782V41.5862Z" fill="black"/>
<path d="M52.9413 42.9489H51.5652V44.3124H52.9413V42.9489Z" fill="black"/>
<path d="M50.1888 44.312H48.8127V45.675H50.1888V44.312Z" fill="black"/>
</svg>
