<svg width="80" height="80" viewBox="0 0 80 80" fill="none" xmlns="http://www.w3.org/2000/svg">
<path d="M78.5714 22.8571H11.4286V20H67.2266C70.4966 19.8427 73.6951 18.9874 76.6071 17.4916C76.9473 17.3265 77.2082 17.0334 77.3326 16.6763C77.457 16.3192 77.4349 15.9274 77.271 15.5867C77.1071 15.2459 76.8148 14.984 76.4581 14.8584C76.1015 14.7327 75.7096 14.7536 75.3683 14.9163C72.8213 16.2255 70.0273 16.9841 67.168 17.1429H42.8571V8.57143C42.8547 6.29891 41.9508 4.12017 40.3439 2.51325C38.737 0.906336 36.5582 0.00248056 34.2857 0H8.57143C6.29891 0.00248056 4.12017 0.906336 2.51325 2.51325C0.906336 4.12017 0.00248056 6.29891 0 8.57143V71.4286C0.00248056 73.7011 0.906336 75.8798 2.51325 77.4867C4.12017 79.0937 6.29891 79.9975 8.57143 80H34.2857C36.5582 79.9975 38.737 79.0937 40.3439 77.4867C41.9508 75.8798 42.8547 73.7011 42.8571 71.4286V60H78.5714C78.7591 60.0001 78.9449 59.9632 79.1182 59.8915C79.2916 59.8197 79.4492 59.7145 79.5818 59.5818C79.7145 59.4491 79.8197 59.2916 79.8915 59.1183C79.9632 58.9449 80.0001 58.7591 80 58.5714V24.2857C80.0001 24.0981 79.9632 23.9123 79.8915 23.7389C79.8197 23.5655 79.7145 23.408 79.5818 23.2753C79.4492 23.1426 79.2916 23.0374 79.1182 22.9657C78.9449 22.8939 78.7591 22.857 78.5714 22.8571ZM2.85714 8.57143C2.85866 7.05637 3.46118 5.6038 4.53249 4.53249C5.6038 3.46118 7.05637 2.85866 8.57143 2.85714H34.2857C35.8008 2.85866 37.2533 3.46118 38.3247 4.53249C39.396 5.6038 39.9985 7.05637 40 8.57143V11.4286H2.85714V8.57143ZM34.2857 77.1429H8.57143C7.05637 77.1413 5.6038 76.5388 4.53249 75.4675C3.46118 74.3962 2.85866 72.9436 2.85714 71.4286V65.7143H40V71.4286C39.9985 72.9436 39.396 74.3962 38.3247 75.4675C37.2533 76.5388 35.8008 77.1413 34.2857 77.1429ZM40 62.8571H2.85714V14.2857H40V17.1429H11.4286V17.1275C11.4286 16.7486 11.2781 16.3853 11.0102 16.1174C10.7422 15.8495 10.3789 15.6989 10 15.6989C9.62112 15.6989 9.25776 15.8495 8.98985 16.1174C8.72194 16.3853 8.57143 16.7486 8.57143 17.1275V59.8968C8.56902 60.266 8.71053 60.6216 8.96594 60.8882C9.22134 61.1548 9.57057 61.3114 9.93953 61.3249C10.3085 61.3383 10.6682 61.2075 10.9423 60.9601C11.2164 60.7128 11.3834 60.3684 11.4078 60H40V62.8571ZM77.1429 57.1429H11.4286V25.7143H77.1429V57.1429Z" fill="black"/>
<path d="M15.7143 48.5714C16.8506 48.5727 17.94 49.0246 18.7434 49.828C19.5469 50.6315 19.9988 51.7209 20.0001 52.8571C19.9999 53.0448 20.0368 53.2306 20.1086 53.4039C20.1803 53.5773 20.2856 53.7348 20.4182 53.8675C20.5509 54.0002 20.7084 54.1054 20.8818 54.1772C21.0552 54.2489 21.241 54.2858 21.4286 54.2857H67.1429C67.3305 54.2858 67.5164 54.2489 67.6897 54.1772C67.8631 54.1054 68.0206 54.0002 68.1533 53.8675C68.286 53.7348 68.3912 53.5773 68.463 53.4039C68.5347 53.2306 68.5716 53.0448 68.5715 52.8571C68.5727 51.7209 69.0247 50.6315 69.8281 49.828C70.6316 49.0246 71.7209 48.5727 72.8572 48.5714C73.0448 48.5715 73.2306 48.5346 73.404 48.4629C73.5774 48.3911 73.7349 48.2859 73.8676 48.1532C74.0003 48.0206 74.1055 47.863 74.1772 47.6897C74.249 47.5163 74.2859 47.3305 74.2858 47.1428V35.7143C74.2859 35.5266 74.249 35.3408 74.1772 35.1674C74.1055 34.9941 74.0003 34.8365 73.8676 34.7039C73.7349 34.5712 73.5774 34.466 73.404 34.3942C73.2306 34.3225 73.0448 34.2856 72.8572 34.2857C71.7209 34.2845 70.6316 33.8325 69.8281 33.0291C69.0247 32.2256 68.5727 31.1362 68.5715 30C68.5716 29.8123 68.5347 29.6265 68.463 29.4532C68.3912 29.2798 68.286 29.1223 68.1533 28.9896C68.0206 28.8569 67.8631 28.7517 67.6897 28.6799C67.5164 28.6082 67.3305 28.5713 67.1429 28.5714H21.4286C21.241 28.5713 21.0552 28.6082 20.8818 28.6799C20.7084 28.7517 20.5509 28.8569 20.4182 28.9896C20.2856 29.1223 20.1803 29.2798 20.1086 29.4532C20.0368 29.6265 19.9999 29.8123 20.0001 30C19.9988 31.1362 19.5469 32.2256 18.7434 33.0291C17.94 33.8325 16.8506 34.2845 15.7143 34.2857C15.5267 34.2856 15.3409 34.3225 15.1675 34.3942C14.9941 34.466 14.8366 34.5712 14.7039 34.7039C14.5713 34.8365 14.466 34.9941 14.3943 35.1674C14.3225 35.3408 14.2857 35.5266 14.2858 35.7143V47.1428C14.2857 47.3305 14.3225 47.5163 14.3943 47.6897C14.466 47.863 14.5713 48.0206 14.7039 48.1532C14.8366 48.2859 14.9941 48.3911 15.1675 48.4629C15.3409 48.5346 15.5267 48.5715 15.7143 48.5714ZM17.1429 36.9992C18.5142 36.7165 19.7726 36.0383 20.7627 35.0483C21.7527 34.0583 22.4309 32.7998 22.7135 31.4286H65.8566C66.1398 32.7998 66.8183 34.0582 67.8086 35.0481C68.7988 36.0381 70.0573 36.7164 71.4286 36.9992V45.858C70.0573 46.1408 68.7988 46.819 67.8086 47.809C66.8183 48.799 66.1398 50.0573 65.8566 51.4286H22.7135C22.4309 50.0573 21.7527 48.7988 20.7627 47.8088C19.7726 46.8188 18.5142 46.1406 17.1429 45.858V36.9992Z" fill="black"/>
<path d="M41.4285 50C43.1238 50 44.781 49.4973 46.1906 48.5555C47.6001 47.6137 48.6988 46.275 49.3475 44.7088C49.9963 43.1425 50.166 41.4191 49.8353 39.7564C49.5046 38.0937 48.6882 36.5664 47.4895 35.3677C46.2907 34.169 44.7634 33.3526 43.1008 33.0219C41.4381 32.6911 39.7146 32.8609 38.1484 33.5096C36.5822 34.1584 35.2435 35.257 34.3017 36.6666C33.3598 38.0761 32.8571 39.7333 32.8571 41.4286C32.8596 43.7011 33.7635 45.8799 35.3704 47.4868C36.9773 49.0937 39.156 49.9976 41.4285 50ZM41.4285 35.7143C42.5587 35.7143 43.6635 36.0495 44.6032 36.6774C45.5429 37.3053 46.2754 38.1977 46.7079 39.2419C47.1404 40.286 47.2535 41.435 47.033 42.5434C46.8125 43.6519 46.2683 44.6701 45.4692 45.4692C44.67 46.2684 43.6518 46.8126 42.5433 47.0331C41.4349 47.2536 40.2859 47.1404 39.2418 46.7079C38.1976 46.2754 37.3052 45.543 36.6773 44.6033C36.0494 43.6636 35.7143 42.5588 35.7143 41.4286C35.716 39.9136 36.3186 38.4612 37.3899 37.3899C38.4611 36.3187 39.9136 35.7161 41.4285 35.7143Z" fill="black"/>
<path d="M30.3529 8.57138C31.1419 8.57138 31.7815 7.93178 31.7815 7.1428C31.7815 6.35383 31.1419 5.71423 30.3529 5.71423C29.5639 5.71423 28.9243 6.35383 28.9243 7.1428C28.9243 7.93178 29.5639 8.57138 30.3529 8.57138Z" fill="black"/>
<path d="M24.6388 5.71423H16.0674C15.6885 5.71423 15.3251 5.86474 15.0572 6.13265C14.7893 6.40056 14.6388 6.76392 14.6388 7.1428C14.6388 7.52169 14.7893 7.88505 15.0572 8.15296C15.3251 8.42087 15.6885 8.57138 16.0674 8.57138H24.6388C25.0177 8.57138 25.381 8.42087 25.6489 8.15296C25.9169 7.88505 26.0674 7.52169 26.0674 7.1428C26.0674 6.76392 25.9169 6.40056 25.6489 6.13265C25.381 5.86474 25.0177 5.71423 24.6388 5.71423Z" fill="black"/>
<path d="M21.7814 67.1428C20.9337 67.1428 20.1052 67.3942 19.4004 67.8651C18.6956 68.336 18.1463 69.0054 17.8219 69.7885C17.4975 70.5716 17.4127 71.4333 17.578 72.2646C17.7434 73.096 18.1516 73.8596 18.7509 74.459C19.3503 75.0584 20.1139 75.4665 20.9453 75.6319C21.7766 75.7973 22.6383 75.7124 23.4215 75.388C24.2046 75.0636 24.8739 74.5143 25.3448 73.8096C25.8157 73.1048 26.0671 72.2762 26.0671 71.4285C26.0659 70.2923 25.6139 69.2029 24.8105 68.3994C24.007 67.596 22.9176 67.1441 21.7814 67.1428ZM21.7814 72.8571C21.4988 72.8571 21.2226 72.7733 20.9877 72.6164C20.7528 72.4594 20.5697 72.2363 20.4616 71.9752C20.3534 71.7142 20.3251 71.427 20.3803 71.1498C20.4354 70.8727 20.5714 70.6182 20.7712 70.4184C20.971 70.2186 21.2256 70.0825 21.5027 70.0274C21.7798 69.9723 22.067 70.0006 22.3281 70.1087C22.5891 70.2168 22.8122 70.3999 22.9692 70.6349C23.1262 70.8698 23.21 71.146 23.21 71.4285C23.2097 71.8073 23.0591 72.1706 22.7913 72.4384C22.5234 72.7063 22.1602 72.8569 21.7814 72.8571Z" fill="black"/>
</svg>
