<svg width="77" height="77" viewBox="0 0 77 77" fill="none" xmlns="http://www.w3.org/2000/svg">
<path d="M25.0103 33.018L24.5414 33.3157L24.0726 33.018C22.8542 32.2445 21.4656 31.8672 20.083 31.8672C18.1469 31.8672 16.2227 32.6064 14.7913 34.0327C13.3856 35.4332 12.6113 37.3001 12.6113 39.2876C12.6113 41.2751 13.3856 43.1419 14.7913 44.5434L24.4627 54.1865L24.5457 54.1044L24.6244 54.1831L34.2924 44.5425C35.6981 43.1411 36.4724 41.2742 36.4724 39.2867C36.4724 37.2992 35.6981 35.4324 34.2924 34.031C31.8386 31.5883 27.9346 31.1614 25.0103 33.018ZM32.5324 42.798L24.6218 50.6855L24.538 50.6025L24.4567 50.6829L16.5495 42.798C15.6101 41.862 15.0933 40.6154 15.0933 39.2884C15.0942 37.9615 15.611 36.7157 16.5495 35.7806C18.4874 33.847 21.6427 33.8462 23.5806 35.7806L24.5423 36.7388L25.5031 35.7815C27.4418 33.8479 30.5971 33.8487 32.5342 35.7815C33.4727 36.7175 33.9895 37.9632 33.9895 39.2902C33.9886 40.6154 33.471 41.862 32.5324 42.798Z" fill="black"/>
<path d="M67.3447 50.695C65.3563 48.6493 62.5774 47.4763 59.7207 47.4763H38.2424C35.1872 47.4763 32.7026 49.9532 32.7026 52.9973C32.7026 56.0414 35.1872 58.5192 38.2424 58.5192H47.385L45.3129 60.0917C42.4732 62.2452 37.398 63.0597 34.4394 62.4676L20.9488 59.7717C18.4 59.2627 15.7366 60.0062 13.8227 61.7618C12.9586 62.5549 12.5547 63.7193 12.7413 64.8752C12.9278 66.0319 13.679 67.0116 14.7493 67.495L32.8172 75.652C34.8116 76.5529 37.0643 76.7796 39.1562 76.292L57.2429 72.6575C58.0959 72.4581 58.9584 72.3598 59.8131 72.3598C62.3302 72.3598 64.7959 73.2093 66.8262 74.8264L69.1978 76.7155C69.7197 77.1304 70.5325 77.038 70.9458 76.5212C71.152 76.2629 71.2461 75.9412 71.2093 75.6135C71.1725 75.285 71.0099 74.9915 70.7515 74.7853L68.379 72.8962C65.0611 70.2533 60.8098 69.2857 56.7142 70.2414L38.6274 73.8758C37.0472 74.2454 35.342 74.0777 33.8439 73.4001L15.7768 65.2431C15.4663 65.1105 15.2489 64.829 15.1942 64.4774C15.1377 64.1437 15.2532 63.8109 15.5125 63.5756C16.8386 62.3573 18.69 61.8414 20.4611 62.1956L33.9509 64.8915C38.363 65.7719 45.4292 64.154 48.2851 60.6624L49.115 59.6477C49.6591 58.9803 49.7687 58.0837 49.3991 57.3077C49.0277 56.53 48.2611 56.0466 47.397 56.0466H38.2424C36.5569 56.0466 35.1863 54.6785 35.1863 52.9973C35.1863 51.3161 36.5569 49.9481 38.2424 49.9481H59.7207C61.9084 49.9481 64.0362 50.8464 65.5574 52.413L74.8643 61.9894C74.9841 62.1117 75.1321 62.2084 75.3023 62.276C75.7558 62.4539 76.276 62.353 76.6225 62.0176C76.8612 61.7875 76.9947 61.4786 76.9998 61.1492C77.0049 60.8198 76.88 60.5084 76.6499 60.2714L67.3447 50.695Z" fill="black"/>
<path d="M14.7947 25.3153H32.9585C35.6467 25.3153 37.8335 23.1353 37.8335 20.4565C37.8335 17.7777 35.6467 15.5977 32.9585 15.5977H24.9982L28.163 13.9465C30.4551 12.7521 33.8816 12.1874 36.1352 12.6383L47.54 14.9175C49.5968 15.3282 51.7468 14.7977 53.3758 13.493C54.1236 12.8941 54.678 12.0616 54.7405 11.106C54.8277 9.76185 54.08 8.55892 52.8984 8.02676L37.6239 1.13085C35.8965 0.350571 33.9526 0.15379 32.1525 0.576442L16.8498 3.65137C14.0666 4.29903 11.1654 3.64623 8.91606 1.85381L6.96964 0.30266C6.47169 -0.0943255 5.73248 -0.115715 5.27561 0.327471C4.99241 0.601254 4.85723 0.97685 4.90001 1.35843C4.9368 1.68612 5.09936 1.98043 5.35774 2.18663L7.36234 3.78398C10.2165 6.05723 13.8681 6.8897 17.3785 6.0675L32.683 2.99172C33.9706 2.69056 35.3712 2.82831 36.5981 3.38186L51.076 9.29386C52.0043 9.67288 52.3295 10.8236 51.7365 11.6321C50.6816 12.4381 49.3324 12.7521 48.0302 12.4937L36.6254 10.2145C32.8438 9.45984 27.3742 11.2454 24.3206 13.8566L23.6849 14.6343C23.2041 15.223 23.0167 16.0298 23.2888 16.739C23.6011 17.5544 24.36 18.0703 25.2215 18.0703H32.8678C34.0228 18.0703 35.0829 18.848 35.3036 19.9817C35.5996 21.5054 34.4326 22.8435 32.9593 22.8435H14.8024C12.9937 22.8435 11.262 22.112 10.0018 20.815L2.13566 12.7221C2.01588 12.5998 1.86872 12.5031 1.69846 12.4364C1.54959 12.3782 1.39302 12.3491 1.23902 12.3491C0.921603 12.3491 0.611031 12.4689 0.376605 12.6948C0.138756 12.924 0.0052866 13.2321 0.000153171 13.5614C-0.00498026 13.8908 0.119078 14.204 0.348371 14.441L8.21791 22.5364C9.94531 24.3134 12.317 25.3153 14.7947 25.3153Z" fill="black"/>
</svg>
