<svg width="89" height="80" viewBox="0 0 89 80" fill="none" xmlns="http://www.w3.org/2000/svg">
<path d="M81.635 23.8419C79.4726 23.7877 77.3156 24.632 75.7734 26.1743L58.7915 43.1561C58.4516 41.9212 57.7971 40.7894 56.8678 39.8574C55.4404 38.4254 53.5392 37.6371 51.5152 37.6371H34.715C30.7491 37.6371 27.0219 39.1812 24.2185 41.9845L15.2868 50.9169L13.8314 49.4616C13.1082 48.7384 11.9366 48.7384 11.2134 49.4616L0.542473 60.1316C0.160076 60.514 -0.0360945 61.0438 0.00548995 61.5826C0.0470744 62.1214 0.321894 62.6159 0.758531 62.935L23.5911 79.6429C23.9184 79.8825 24.3017 80 24.6832 80C25.1605 80 25.6342 79.8165 25.9931 79.4576L33.6013 71.8494C34.3245 71.1262 34.3245 69.9546 33.6013 69.2314L31.5954 67.2255L34.4989 64.3226L54.7551 64.3308C54.7569 64.3308 54.7578 64.3308 54.7596 64.3308C57.4708 64.3308 60.021 63.2749 61.9402 61.3566L86.655 36.6409C88.0679 35.2279 88.8544 33.3385 88.868 31.309C88.868 29.4251 88.1773 27.6279 86.9334 26.2583C85.5891 24.7568 83.707 23.8989 81.635 23.8419ZM24.497 75.7177L4.68827 61.2219L12.5224 53.3886L13.9779 54.8441L27.6682 68.5344L29.6742 70.5404L24.497 75.7177ZM84.037 34.0229L59.3222 58.7376C58.1027 59.9572 56.4827 60.6279 54.7596 60.6279C54.7587 60.6279 54.7578 60.6279 54.7569 60.6279L33.7332 60.6198H33.7323C33.2415 60.6198 32.7705 60.8151 32.4233 61.1622L28.9772 64.6074L17.9049 53.5351L26.8365 44.6025C28.9411 42.4989 31.739 41.34 34.715 41.34H51.5152C52.5484 41.34 53.5175 41.7422 54.2453 42.4718C54.9658 43.195 55.3617 44.155 55.3581 45.1983C55.3633 45.7888 55.1954 46.353 54.9339 46.8766C54.5717 47.054 54.1824 47.194 53.7345 47.2567C53.5709 47.282 53.4081 47.2947 53.0628 47.3037L39.1646 48.6841C38.1466 48.7854 37.4035 49.6921 37.5048 50.7091C37.5997 51.6647 38.4052 52.3779 39.3454 52.3779C39.4059 52.3779 39.4683 52.3752 39.5298 52.3689L53.2454 50.9975C53.5962 50.9975 53.9469 50.9704 54.2724 50.9198C55.2773 50.7799 56.1951 50.4329 57.0332 49.9414C57.0672 49.9274 57.0975 49.9085 57.1309 49.8923C57.1979 49.8517 57.2748 49.8299 57.3406 49.787C57.3922 49.7532 57.42 49.7004 57.4672 49.6625C57.522 49.619 57.5874 49.5963 57.638 49.5457L78.3914 28.7923C79.2168 27.966 80.3793 27.5285 81.5328 27.5438C82.5779 27.5728 83.5162 27.9931 84.1834 28.738C84.8162 29.435 85.1652 30.3481 85.1652 31.2964C85.1579 32.3342 84.7575 33.3024 84.037 34.0229Z" fill="black"/>
<path d="M46.5458 12.8582C49.4838 9.92107 49.4838 5.14066 46.5458 2.20353C43.6077 -0.734509 38.8291 -0.734509 35.8911 2.20353C32.9531 5.14066 32.9531 9.92107 35.8911 12.8582C37.3601 14.3272 39.2893 15.0613 41.2184 15.0613C43.1476 15.0613 45.0767 14.3272 46.5458 12.8582ZM38.5091 4.82154C39.2558 4.07483 40.2376 3.70147 41.2184 3.70147C42.1993 3.70147 43.181 4.07483 43.9277 4.82154C45.4212 6.31588 45.4212 8.74586 43.9277 10.2402C42.4343 11.7336 40.0025 11.7336 38.5091 10.2402C37.0157 8.74586 37.0157 6.31588 38.5091 4.82154Z" fill="black"/>
<path d="M58.532 32.374C60.4611 32.374 62.3903 31.64 63.8593 30.1709C66.7973 27.2338 66.7973 22.4534 63.8593 19.5163C60.9213 16.5782 56.1427 16.5782 53.2046 19.5163C50.2666 22.4534 50.2666 27.2338 53.2046 30.1709C54.6736 31.64 56.6028 32.374 58.532 32.374ZM55.8226 22.1343C56.5694 21.3876 57.5511 21.0142 58.532 21.0142C59.5128 21.0142 60.4946 21.3876 61.2413 22.1343C62.7347 23.6286 62.7347 26.0586 61.2413 27.5529C59.7479 29.0464 57.3161 29.0464 55.8226 27.5529C54.3292 26.0586 54.3292 23.6286 55.8226 22.1343Z" fill="black"/>
<path d="M40.6118 27.3016C41.0855 27.3016 41.5592 27.1208 41.9208 26.7592L60.4467 8.2333C61.1699 7.51009 61.1699 6.33849 60.4467 5.61528C59.7235 4.89207 58.5519 4.89207 57.8287 5.61528L39.3028 24.1412C38.5796 24.8644 38.5796 26.036 39.3028 26.7592C39.6644 27.1208 40.1381 27.3016 40.6118 27.3016Z" fill="black"/>
</svg>
